<svg width="794" height="185" viewBox="0 0 794 185" fill="none" xmlns="http://www.w3.org/2000/svg">
<path d="M129.333 45.3333C130.071 45.3333 130.667 44.7359 130.667 44V38.6667C130.667 37.9308 130.071 37.3334 129.333 37.3334H122.667V36C122.667 35.2641 122.071 34.6667 121.333 34.6667C120.596 34.6667 120 35.2641 120 36V37.3333H82.6667V36C82.6667 35.2641 82.0694 34.6667 81.3334 34.6667C80.5975 34.6667 80.0002 35.2641 80.0002 36V37.3333H73.3334C72.5975 37.3333 72.0002 37.9306 72.0002 38.6666V44C72.0002 44.7359 72.5975 45.3333 73.3334 45.3333H81.3334H121.333H129.333ZM74.6667 42.6667V40H128V42.6667H74.6667Z" fill="#D4C17F"/>
<path d="M104 29.3333C101.844 29.3333 100.451 30.9719 100.299 31.16C99.8372 31.7267 99.9226 32.5547 100.487 33.0214C101.052 33.4894 101.888 33.4081 102.361 32.8508C102.367 32.8414 103.089 32.0002 104 32.0002C104.91 32.0002 105.632 32.8416 105.632 32.8416C105.896 33.1656 106.28 33.3336 106.668 33.3336C106.964 33.3336 107.26 33.2362 107.508 33.035C108.08 32.5709 108.165 31.7309 107.701 31.1603C107.549 30.972 106.156 29.3333 104 29.3333Z" fill="#D4C17F"/>
<path d="M129.333 56C130.071 56 130.667 55.4027 130.667 54.6667V49.3334C130.667 48.5975 130.071 48.0002 129.333 48.0002H122.667V46.6669C122.667 45.9309 122.071 45.3336 121.333 45.3336C120.596 45.3336 120 45.9309 120 46.6669V48.0002H82.6667V46.6669C82.6667 45.9309 82.0694 45.3336 81.3334 45.3336C80.5975 45.3336 80.0002 45.9309 80.0002 46.6669V48.0002H73.3334C72.5975 48.0002 72.0002 48.5975 72.0002 49.3334V54.6667C72.0002 55.4027 72.5975 56 73.3334 56H81.3334H121.333H129.333ZM74.6667 53.3333V50.6666H128V53.3333H74.6667Z" fill="#D4C17F"/>
<path d="M110.965 26.1733C111.229 26.4986 111.613 26.6666 112.001 26.6666C112.297 26.6666 112.593 26.5692 112.841 26.368C113.413 25.9039 113.499 25.0639 113.035 24.4933C112.882 24.3053 111.489 22.6666 109.333 22.6666C107.177 22.6666 105.784 24.3052 105.632 24.4933C105.17 25.06 105.256 25.888 105.82 26.3547C106.385 26.8241 107.221 26.7414 107.693 26.1841C107.7 26.1747 108.422 25.3334 109.333 25.3334C110.244 25.3333 110.965 26.1733 110.965 26.1733Z" fill="#D4C17F"/>
<path d="M57.3401 17.4667C57.408 18.1481 57.9815 18.6667 58.6668 18.6667H66.6668C67.3521 18.6667 67.9254 18.1481 67.9935 17.4667L69.3268 4.13344C69.3641 3.7575 69.2415 3.38547 68.9882 3.10547C68.7362 2.82672 68.3776 2.66688 68.0002 2.66688H64.0001V1.33328C64.0001 0.597344 63.4027 0 62.6668 0C61.9309 0 61.3335 0.597344 61.3335 1.33328V2.66656H57.3335C56.9562 2.66656 56.5976 2.82656 56.3455 3.10516C56.0923 3.38516 55.9696 3.75719 56.007 4.13312L57.3401 17.4667ZM66.5268 5.33328L65.4601 16H59.8734L58.8066 5.33328H66.5268Z" fill="#D4C17F"/>
<path d="M93.3333 30.6667C93.3333 32.1573 93.9426 33.5441 95.0492 34.5694C95.3051 34.8067 95.6306 34.9253 95.9559 34.9253C96.3133 34.9253 96.6706 34.7813 96.9333 34.4986C97.4333 33.9586 97.4026 33.1145 96.8626 32.6133C96.3053 32.0986 96 31.4066 96 30.6666C96 29.5625 96.7026 28.5613 97.7506 28.1759C98.1853 28.0159 98.5053 27.6413 98.5959 27.1866C98.6879 26.7319 98.5345 26.2625 98.1959 25.9466C97.6386 25.4319 97.3333 24.7398 97.3333 23.9998C97.3333 22.6131 98.4253 21.4531 99.8186 21.3572C100.331 21.3225 100.776 20.9986 100.967 20.5225C101.156 20.0466 101.057 19.5039 100.711 19.1266C100.252 18.6266 100 17.9892 100 17.3333C100 15.9466 101.092 14.7866 102.485 14.6906C102.997 14.6559 103.443 14.332 103.633 13.8559C103.823 13.38 103.724 12.8373 103.377 12.46C102.92 11.96 102.667 11.3227 102.667 10.6667C102.667 9.47469 103.479 8.42266 104.64 8.10813C105.009 8.00813 105.316 7.75609 105.485 7.41609C105.656 7.07609 105.672 6.6775 105.529 6.32547C105.4 5.99875 105.333 5.66547 105.333 5.33344C105.333 3.86281 106.529 2.66672 108 2.66672C109.471 2.66672 110.667 3.86266 110.667 5.33344C110.667 5.66547 110.6 5.99875 110.471 6.32547C110.328 6.6775 110.344 7.07609 110.515 7.41609C110.684 7.75609 110.991 8.00813 111.36 8.10813C112.522 8.42281 113.334 9.47484 113.334 10.6667C113.334 11.3227 113.08 11.96 112.623 12.46C112.276 12.8373 112.178 13.38 112.367 13.8559C112.558 14.3319 113.003 14.6559 113.515 14.6906C114.908 14.7866 116 15.9466 116 17.3333C116 17.9892 115.747 18.6266 115.29 19.1266C114.943 19.5039 114.844 20.0466 115.034 20.5225C115.224 20.9984 115.67 21.3225 116.182 21.3572C117.575 21.4531 118.667 22.6131 118.667 23.9998C118.667 24.7398 118.362 25.4319 117.804 25.9466C117.466 26.2625 117.312 26.7319 117.404 27.1866C117.495 27.6413 117.815 28.0159 118.251 28.1759C119.298 28.5613 120 29.5627 120 30.6666C120 31.4025 120.596 31.9998 121.334 31.9998C122.071 31.9998 122.667 31.4025 122.667 30.6666C122.667 29.0425 121.914 27.5319 120.688 26.5372C121.11 25.7678 121.334 24.9025 121.334 23.9998C121.334 21.9145 120.107 20.0825 118.318 19.2158C118.547 18.6184 118.667 17.9811 118.667 17.3331C118.667 15.2478 117.44 13.4158 115.651 12.5491C115.881 11.9517 116.001 11.3144 116.001 10.6664C116.001 8.72234 114.931 6.96641 113.286 6.03703C113.318 5.80375 113.334 5.56906 113.334 5.33297C113.333 2.39203 110.941 0 108 0C105.059 0 102.667 2.39203 102.667 5.33328C102.667 5.56922 102.683 5.80391 102.715 6.03734C101.069 6.96672 100 8.72266 100 10.6667C100 11.3147 100.12 11.952 100.349 12.5494C98.56 13.4161 97.3334 15.248 97.3334 17.3334C97.3334 17.9814 97.4534 18.6188 97.6828 19.2161C95.8934 20.0828 94.6668 21.9147 94.6668 24.0002C94.6668 24.9028 94.8909 25.7681 95.3122 26.5375C94.0867 27.532 93.3333 29.0427 93.3333 30.6667Z" fill="#D4C17F"/>
<path d="M106.159 18.5614C106.836 18.8414 107.616 18.5187 107.9 17.8414C107.925 17.7773 107.963 17.7067 108 17.6373C108.037 17.7041 108.072 17.7733 108.097 17.8359C108.308 18.3533 108.807 18.668 109.333 18.668C109.501 18.668 109.671 18.6359 109.835 18.568C110.517 18.292 110.847 17.5133 110.569 16.832C110.421 16.4706 109.608 14.6667 108 14.6667C106.392 14.6667 105.579 16.4708 105.431 16.832C105.155 17.5106 105.481 18.2814 106.159 18.5614Z" fill="#D4C17F"/>
<path d="M134.667 77.3333H113.333C112.596 77.3333 112 77.9306 112 78.6666C112 79.4025 112.596 79.9998 113.333 79.9998H134.667C135.404 79.9998 136 79.4025 136 78.6666C136 77.9306 135.404 77.3333 134.667 77.3333Z" fill="#D4C17F"/>
<path d="M134.667 58.6667H122.667V57.3334C122.667 56.5975 122.071 56.0002 121.333 56.0002C120.596 56.0002 120 56.5975 120 57.3334V58.6667H82.6667V57.3334C82.6667 56.5975 82.0694 56.0002 81.3334 56.0002C80.5975 56.0002 80.0002 56.5975 80.0002 57.3334V58.6667H68C67.2641 58.6667 66.6667 59.2641 66.6667 60V65.3333C66.6667 66.0692 67.2641 66.6666 68 66.6666H72V73.3333C72 74.0692 72.5973 74.6666 73.3333 74.6666C74.0692 74.6666 74.6666 74.0692 74.6666 73.3333V66.6666H128V73.3333C128 74.0692 128.596 74.6666 129.333 74.6666C130.071 74.6666 130.667 74.0692 130.667 73.3333V66.6666H134.667C135.404 66.6666 136 66.0692 136 65.3333V60C136 59.2641 135.404 58.6667 134.667 58.6667ZM133.333 64H69.3333V61.3333H133.333V64Z" fill="#D4C17F"/>
<path d="M76 77.3333H64V22.6667C64 21.9308 63.4027 21.3334 62.6667 21.3334C61.9308 21.3334 61.3334 21.9308 61.3334 22.6667V77.3334H57.3334C56.5975 77.3334 56.0002 77.9308 56.0002 78.6667C56.0002 79.4027 56.5973 80 57.3333 80H76C76.7359 80 77.3333 79.4027 77.3333 78.6667C77.3333 77.9308 76.7359 77.3333 76 77.3333Z" fill="#D4C17F"/>
<path d="M108 77.3333H105.333C104.596 77.3333 104 77.9306 104 78.6666C104 79.4025 104.596 79.9998 105.333 79.9998H108C108.737 79.9998 109.333 79.4025 109.333 78.6666C109.333 77.9306 108.737 77.3333 108 77.3333Z" fill="#D4C17F"/>
<path d="M97.3333 77.3333H84C83.2641 77.3333 82.6667 77.9306 82.6667 78.6666C82.6667 79.4025 83.2641 80 84 80H97.3333C98.0706 80 98.6666 79.4027 98.6666 78.6667C98.6666 77.9308 98.0706 77.3333 97.3333 77.3333Z" fill="#D4C17F"/>
<path d="M346.333 74.6667H309C308.264 74.6667 307.667 75.2641 307.667 76V78.6667C307.667 79.4027 308.264 80 309 80C309.736 80 310.333 79.4027 310.333 78.6667V77.3334H346.333C347.069 77.3334 347.667 76.7361 347.667 76.0002C347.667 75.2642 347.069 74.6667 346.333 74.6667Z" fill="#D4C17F"/>
<path d="M318.333 33.3333C318.333 34.0692 318.931 34.6666 319.667 34.6666H325C325.736 34.6666 326.333 34.0692 326.333 33.3333V25.3333C326.333 24.5973 325.736 24 325 24H319.667C318.931 24 318.333 24.5973 318.333 25.3333V33.3333H318.333ZM321 26.6667H323.667V32H321V26.6667Z" fill="#D4C17F"/>
<path d="M306.333 16H290.333C289.597 16 289 16.5973 289 17.3333V44C289 44.7359 289.597 45.3333 290.333 45.3333C291.069 45.3333 291.667 44.7359 291.667 44V18.6667H306.333C307.069 18.6667 307.667 18.0694 307.667 17.3334C307.667 16.5975 307.069 16 306.333 16Z" fill="#D4C17F"/>
<path d="M353 65.3333C353 66.0692 353.597 66.6666 354.333 66.6666H359.667C360.403 66.6666 361 66.0692 361 65.3333V57.3333C361 56.5973 360.403 56 359.667 56H354.333C353.597 56 353 56.5973 353 57.3333V65.3333ZM355.667 58.6667H358.333V64H355.667V58.6667Z" fill="#D4C17F"/>
<path d="M295.667 48C289.076 48 289 65.16 289 65.3333C289 68.5533 291.295 71.2453 294.333 71.8653V78.6667C294.333 79.4027 294.931 80 295.667 80C296.403 80 297 79.4027 297 78.6667V71.8653C300.038 71.2453 302.333 68.5533 302.333 65.3333C302.333 65.16 302.257 48 295.667 48ZM295.667 69.3333C293.461 69.3333 291.667 67.5386 291.667 65.3333C291.667 58.6906 293.451 50.6666 295.667 50.6666C297.883 50.6666 299.667 58.6906 299.667 65.3333C299.667 67.5386 297.872 69.3333 295.667 69.3333Z" fill="#D4C17F"/>
<path d="M303.667 40H298.333C297.597 40 297 40.5973 297 41.3333V44C297 44.7359 297.597 45.3333 298.333 45.3333C299.069 45.3333 299.667 44.7359 299.667 44V42.6667H302.333V49.3334C302.333 50.0694 302.931 50.6667 303.667 50.6667C304.402 50.6667 305 50.0694 305 49.3334V41.3334C305 40.5973 304.403 40 303.667 40Z" fill="#D4C17F"/>
<path d="M354.333 34.6667H359.667C360.403 34.6667 361 34.0694 361 33.3334V25.3334C361 24.5975 360.403 24.0002 359.667 24.0002H354.333C353.597 24.0002 353 24.5975 353 25.3334V33.3334C353 34.0694 353.597 34.6667 354.333 34.6667ZM355.667 26.6667H358.333V32H355.667V26.6667Z" fill="#D4C17F"/>
<path d="M303.667 24H298.333C297.597 24 297 24.5973 297 25.3333V33.3333C297 34.0692 297.597 34.6666 298.333 34.6666H303.667C304.402 34.6666 305 34.0692 305 33.3333V25.3333C305 24.5973 304.403 24 303.667 24ZM302.333 32H299.667V26.6667H302.333V32H302.333Z" fill="#D4C17F"/>
<path d="M331.667 33.3333C331.667 34.0692 332.264 34.6666 333 34.6666H338.333C339.069 34.6666 339.667 34.0692 339.667 33.3333V25.3333C339.667 24.5973 339.069 24 338.333 24H333C332.264 24 331.667 24.5973 331.667 25.3333V33.3333ZM334.333 26.6667H337V32H334.333V26.6667Z" fill="#D4C17F"/>
<path d="M367.667 16H351.667C350.931 16 350.333 16.5973 350.333 17.3333C350.333 18.0692 350.931 18.6666 351.667 18.6666H366.333V72.2453C365.915 72.0959 365.471 72 365 72C364.77 72 364.54 72.02 364.315 72.06C363.395 70.4027 361.644 69.3333 359.667 69.3333C357.69 69.3333 355.939 70.4027 355.019 72.06C354.794 72.02 354.564 72 354.334 72C352.128 72 350.334 73.7947 350.334 76C350.334 78.2053 352.128 80 354.334 80H365C367.205 80 369 78.2053 369 76V17.3333C369 16.5973 368.403 16 367.667 16ZM365 77.3333H354.333C353.599 77.3333 353 76.7347 353 76C353 75.2653 353.599 74.6667 354.333 74.6667C354.589 74.6667 354.832 74.74 355.056 74.8841C355.421 75.1187 355.877 75.1614 356.28 74.9987C356.683 74.8361 356.98 74.4867 357.077 74.0641C357.359 72.8494 358.424 72 359.667 72C360.909 72 361.975 72.8494 362.256 74.0641C362.353 74.4867 362.651 74.8361 363.053 74.9987C363.455 75.1614 363.912 75.1187 364.277 74.8841C365.145 74.3241 366.333 75.0094 366.333 76C366.333 76.7347 365.735 77.3333 365 77.3333Z" fill="#D4C17F"/>
<path d="M333 18.6667H338.333C339.069 18.6667 339.667 18.0694 339.667 17.3334V9.33344C339.667 8.59751 339.069 8.00016 338.333 8.00016H333C332.264 8.00016 331.667 8.59751 331.667 9.33344V17.3334C331.667 18.0694 332.264 18.6667 333 18.6667ZM334.333 10.6667H337V16H334.333V10.6667Z" fill="#D4C17F"/>
<path d="M331.667 49.3333C331.667 50.0692 332.264 50.6666 333 50.6666H338.333C339.069 50.6666 339.667 50.0692 339.667 49.3333V41.3333C339.667 40.5973 339.069 40 338.333 40H333C332.264 40 331.667 40.5973 331.667 41.3333V49.3333ZM334.333 42.6667H337V48H334.333V42.6667Z" fill="#D4C17F"/>
<path d="M319.667 18.6667H325C325.736 18.6667 326.333 18.0694 326.333 17.3334V9.33344C326.333 8.59751 325.736 8.00016 325 8.00016H319.667C318.931 8.00016 318.333 8.59751 318.333 9.33344V17.3334C318.333 18.0694 318.931 18.6667 319.667 18.6667ZM321 10.6667H323.667V16H321V10.6667Z" fill="#D4C17F"/>
<path d="M328.053 64.3867C327.813 64.64 327.667 64.9867 327.667 65.3334C327.667 65.6802 327.813 66.0267 328.053 66.2802C328.307 66.5202 328.653 66.6669 329 66.6669C329.347 66.6669 329.693 66.5202 329.947 66.2802C330.187 66.0269 330.333 65.6802 330.333 65.3334C330.333 64.9867 330.187 64.6402 329.947 64.3867C329.44 63.8933 328.56 63.8933 328.053 64.3867Z" fill="#D4C17F"/>
<path d="M318.333 49.3333C318.333 50.0692 318.931 50.6666 319.667 50.6666H325C325.736 50.6666 326.333 50.0692 326.333 49.3333V41.3333C326.333 40.5973 325.736 40 325 40H319.667C318.931 40 318.333 40.5973 318.333 41.3333V49.3333H318.333ZM321 42.6667H323.667V48H321V42.6667Z" fill="#D4C17F"/>
<path d="M315.667 57.3333C315.667 58.0692 316.264 58.6666 317 58.6666H321V70.6666C321 71.4025 321.597 71.9998 322.333 71.9998C323.069 71.9998 323.667 71.4025 323.667 70.6666V58.6666H334.333V70.6666C334.333 71.4025 334.931 71.9998 335.667 71.9998C336.402 71.9998 337 71.4025 337 70.6666V58.6666H341C341.736 58.6666 342.333 58.0692 342.333 57.3333C342.333 56.5973 341.736 56 341 56H317C316.264 56 315.667 56.5973 315.667 57.3333Z" fill="#D4C17F"/>
<path d="M353 49.3333C353 50.0692 353.597 50.6666 354.333 50.6666H359.667C360.403 50.6666 361 50.0692 361 49.3333V41.3333C361 40.5973 360.403 40 359.667 40H354.333C353.597 40 353 40.5973 353 41.3333V49.3333ZM355.667 42.6667H358.333V48H355.667V42.6667Z" fill="#D4C17F"/>
<path d="M346.333 0H311.667C310.931 0 310.333 0.597344 310.333 1.33328V70.6666C310.333 71.4025 310.931 71.9998 311.667 71.9998C312.403 71.9998 313 71.4025 313 70.6666V2.66656H345V70.6666C345 71.4025 345.597 71.9998 346.333 71.9998C347.069 71.9998 347.667 71.4025 347.667 70.6666V1.33328C347.667 0.597344 347.069 0 346.333 0Z" fill="#D4C17F"/>
<path d="M3.0918 147.209V153H1.89062V138.781H6.73438C8.21224 138.781 9.3776 139.159 10.2305 139.914C11.0898 140.669 11.5195 141.708 11.5195 143.029C11.5195 144.364 11.1061 145.396 10.2793 146.125C9.45898 146.848 8.26758 147.209 6.70508 147.209H3.0918ZM3.0918 146.193H6.73438C7.89974 146.193 8.78841 145.917 9.40039 145.363C10.0124 144.81 10.3184 144.038 10.3184 143.049C10.3184 142.066 10.0124 141.285 9.40039 140.705C8.79492 140.119 7.93229 139.82 6.8125 139.807H3.0918V146.193ZM21.6465 142.434V153H20.4746V148.742H17.1934L14.6152 153H13.3262L15.9824 148.596C15.2598 148.407 14.6966 148.042 14.293 147.502C13.8958 146.962 13.6973 146.324 13.6973 145.588C13.6973 144.631 14.0391 143.866 14.7227 143.293C15.4128 142.72 16.3438 142.434 17.5156 142.434H21.6465ZM14.8691 145.607C14.8691 146.226 15.0645 146.734 15.4551 147.131C15.8522 147.528 16.4023 147.733 17.1055 147.746H20.4746V143.43H17.4863C16.6725 143.43 16.0312 143.625 15.5625 144.016C15.1003 144.406 14.8691 144.937 14.8691 145.607ZM24.5566 152.014L25.0742 151.34C25.8945 150.227 26.3665 148.599 26.4902 146.457L26.6758 142.434H32.916V152.014H34.0098V156.105H32.8477V153H24.9082V156.105H23.7852L23.7949 152.014H24.5566ZM25.9043 152.014H31.7441V143.527H27.7891L27.6621 146.271C27.5449 148.791 26.959 150.705 25.9043 152.014ZM35.6211 147.561C35.6211 146.545 35.8164 145.63 36.207 144.816C36.6042 144.003 37.1608 143.371 37.877 142.922C38.5996 142.466 39.4167 142.238 40.3281 142.238C41.7344 142.238 42.8737 142.733 43.7461 143.723C44.6185 144.706 45.0547 146.011 45.0547 147.639V147.883C45.0547 148.905 44.8561 149.826 44.459 150.646C44.0684 151.46 43.515 152.089 42.7988 152.531C42.0827 152.974 41.2656 153.195 40.3477 153.195C38.9479 153.195 37.8086 152.704 36.9297 151.721C36.0573 150.731 35.6211 149.423 35.6211 147.795V147.561ZM36.793 147.883C36.793 149.146 37.1185 150.184 37.7695 150.998C38.4271 151.805 39.2865 152.209 40.3477 152.209C41.4023 152.209 42.2552 151.805 42.9062 150.998C43.5638 150.184 43.8926 149.113 43.8926 147.785V147.561C43.8926 146.753 43.7428 146.014 43.4434 145.344C43.1439 144.673 42.724 144.156 42.1836 143.791C41.6432 143.42 41.0247 143.234 40.3281 143.234C39.2865 143.234 38.4368 143.645 37.7793 144.465C37.1217 145.279 36.793 146.346 36.793 147.668V147.883ZM53.3262 151.418L57.5254 142.434H58.9707V153H57.7988V144.328L53.7363 153H52.9062L48.7656 144.133V153H47.6035V142.434H49.1367L53.3262 151.418ZM73.9121 142.434H75.084V153H73.9121V144.318L68.209 153H67.0469V142.434H68.209V151.125L73.9121 142.434ZM82.125 152.209C82.9388 152.209 83.6191 151.981 84.166 151.525C84.7194 151.063 85.0189 150.467 85.0645 149.738H86.1875C86.1549 150.383 85.9531 150.972 85.582 151.506C85.2109 152.033 84.7161 152.447 84.0977 152.746C83.4857 153.046 82.8281 153.195 82.125 153.195C80.7383 153.195 79.638 152.714 78.8242 151.75C78.0169 150.786 77.6133 149.491 77.6133 147.863V147.512C77.6133 146.47 77.7956 145.549 78.1602 144.748C78.5247 143.947 79.0456 143.329 79.7227 142.893C80.4062 142.456 81.2038 142.238 82.1152 142.238C83.2741 142.238 84.2279 142.583 84.9766 143.273C85.7318 143.964 86.1354 144.872 86.1875 145.998H85.0645C85.0124 145.171 84.7129 144.504 84.166 143.996C83.6257 143.488 82.9421 143.234 82.1152 143.234C81.0605 143.234 80.2402 143.615 79.6543 144.377C79.0749 145.139 78.7852 146.206 78.7852 147.58V147.922C78.7852 149.27 79.0749 150.321 79.6543 151.076C80.2402 151.831 81.0638 152.209 82.125 152.209ZM96.1191 143.43H92.2715V153H91.0996V143.43H87.3984V142.434H96.1191V143.43ZM96.9883 147.561C96.9883 146.545 97.1836 145.63 97.5742 144.816C97.9714 144.003 98.528 143.371 99.2441 142.922C99.9668 142.466 100.784 142.238 101.695 142.238C103.102 142.238 104.241 142.733 105.113 143.723C105.986 144.706 106.422 146.011 106.422 147.639V147.883C106.422 148.905 106.223 149.826 105.826 150.646C105.436 151.46 104.882 152.089 104.166 152.531C103.45 152.974 102.633 153.195 101.715 153.195C100.315 153.195 99.1758 152.704 98.2969 151.721C97.4245 150.731 96.9883 149.423 96.9883 147.795V147.561ZM98.1602 147.883C98.1602 149.146 98.4857 150.184 99.1367 150.998C99.7943 151.805 100.654 152.209 101.715 152.209C102.77 152.209 103.622 151.805 104.273 150.998C104.931 150.184 105.26 149.113 105.26 147.785V147.561C105.26 146.753 105.11 146.014 104.811 145.344C104.511 144.673 104.091 144.156 103.551 143.791C103.01 143.42 102.392 143.234 101.695 143.234C100.654 143.234 99.804 143.645 99.1465 144.465C98.4889 145.279 98.1602 146.346 98.1602 147.668V147.883ZM117.34 147.824C117.34 149.471 116.975 150.78 116.246 151.75C115.517 152.714 114.54 153.195 113.316 153.195C111.871 153.195 110.764 152.688 109.996 151.672V157.062H108.834V142.434H109.918L109.977 143.928C110.738 142.801 111.842 142.238 113.287 142.238C114.55 142.238 115.54 142.717 116.256 143.674C116.979 144.631 117.34 145.959 117.34 147.658V147.824ZM116.168 147.619C116.168 146.271 115.891 145.207 115.338 144.426C114.785 143.645 114.013 143.254 113.023 143.254C112.307 143.254 111.692 143.426 111.178 143.771C110.663 144.117 110.27 144.618 109.996 145.275V150.344C110.276 150.949 110.676 151.411 111.197 151.73C111.718 152.049 112.333 152.209 113.043 152.209C114.026 152.209 114.791 151.818 115.338 151.037C115.891 150.249 116.168 149.11 116.168 147.619ZM126.881 142.434H128.053V153H126.881V144.318L121.178 153H120.016V142.434H121.178V151.125L126.881 142.434ZM138.707 153H137.535V148.557C136.572 148.908 135.65 149.084 134.771 149.084C133.372 149.084 132.356 148.778 131.725 148.166C131.093 147.548 130.764 146.587 130.738 145.285V142.434H131.9V145.227C131.913 146.236 132.135 146.965 132.564 147.414C133.001 147.857 133.736 148.078 134.771 148.078C135.715 148.052 136.637 147.883 137.535 147.57V142.434H138.707V153ZM145.924 153.195C145.025 153.195 144.212 152.974 143.482 152.531C142.76 152.089 142.197 151.473 141.793 150.686C141.389 149.891 141.188 149.003 141.188 148.02V147.6C141.188 146.584 141.383 145.669 141.773 144.855C142.171 144.042 142.721 143.404 143.424 142.941C144.127 142.473 144.889 142.238 145.709 142.238C146.992 142.238 148.007 142.678 148.756 143.557C149.511 144.429 149.889 145.624 149.889 147.141V147.795H142.35V148.02C142.35 149.217 142.691 150.217 143.375 151.018C144.065 151.812 144.931 152.209 145.973 152.209C146.598 152.209 147.148 152.095 147.623 151.867C148.105 151.639 148.541 151.275 148.932 150.773L149.664 151.33C148.805 152.574 147.558 153.195 145.924 153.195ZM145.709 143.234C144.83 143.234 144.088 143.557 143.482 144.201C142.883 144.846 142.519 145.712 142.389 146.799H148.727V146.672C148.694 145.656 148.404 144.829 147.857 144.191C147.311 143.553 146.594 143.234 145.709 143.234ZM156.07 152.209C156.884 152.209 157.564 151.981 158.111 151.525C158.665 151.063 158.964 150.467 159.01 149.738H160.133C160.1 150.383 159.898 150.972 159.527 151.506C159.156 152.033 158.661 152.447 158.043 152.746C157.431 153.046 156.773 153.195 156.07 153.195C154.684 153.195 153.583 152.714 152.77 151.75C151.962 150.786 151.559 149.491 151.559 147.863V147.512C151.559 146.47 151.741 145.549 152.105 144.748C152.47 143.947 152.991 143.329 153.668 142.893C154.352 142.456 155.149 142.238 156.061 142.238C157.219 142.238 158.173 142.583 158.922 143.273C159.677 143.964 160.081 144.872 160.133 145.998H159.01C158.958 145.171 158.658 144.504 158.111 143.996C157.571 143.488 156.887 143.234 156.061 143.234C155.006 143.234 154.186 143.615 153.6 144.377C153.02 145.139 152.73 146.206 152.73 147.58V147.922C152.73 149.27 153.02 150.321 153.6 151.076C154.186 151.831 155.009 152.209 156.07 152.209ZM165.348 148.156H163.727V153H162.545V142.434H163.727V147.121H165.328L169.205 142.434H170.68L166.344 147.561L171.158 153H169.615L165.348 148.156ZM179.791 142.434H180.963V153H179.791V144.318L174.088 153H172.926V142.434H174.088V151.125L179.791 142.434ZM188.189 153.195C187.291 153.195 186.477 152.974 185.748 152.531C185.025 152.089 184.462 151.473 184.059 150.686C183.655 149.891 183.453 149.003 183.453 148.02V147.6C183.453 146.584 183.648 145.669 184.039 144.855C184.436 144.042 184.986 143.404 185.689 142.941C186.393 142.473 187.154 142.238 187.975 142.238C189.257 142.238 190.273 142.678 191.021 143.557C191.777 144.429 192.154 145.624 192.154 147.141V147.795H184.615V148.02C184.615 149.217 184.957 150.217 185.641 151.018C186.331 151.812 187.197 152.209 188.238 152.209C188.863 152.209 189.413 152.095 189.889 151.867C190.37 151.639 190.807 151.275 191.197 150.773L191.93 151.33C191.07 152.574 189.824 153.195 188.189 153.195ZM187.975 143.234C187.096 143.234 186.354 143.557 185.748 144.201C185.149 144.846 184.785 145.712 184.654 146.799H190.992V146.672C190.96 145.656 190.67 144.829 190.123 144.191C189.576 143.553 188.86 143.234 187.975 143.234ZM34.1465 180H32.9746V170.439H27.2812V180H26.1094V169.434H34.1465V180ZM43.9512 180C43.834 179.668 43.7591 179.176 43.7266 178.525C43.3164 179.059 42.7923 179.473 42.1543 179.766C41.5228 180.052 40.8522 180.195 40.1426 180.195C39.127 180.195 38.3034 179.912 37.6719 179.346C37.0469 178.779 36.7344 178.063 36.7344 177.197C36.7344 176.169 37.1608 175.355 38.0137 174.756C38.873 174.157 40.0677 173.857 41.5977 173.857H43.7168V172.656C43.7168 171.901 43.4824 171.309 43.0137 170.879C42.5514 170.443 41.8743 170.225 40.9824 170.225C40.1686 170.225 39.4948 170.433 38.9609 170.85C38.4271 171.266 38.1602 171.768 38.1602 172.354L36.9883 172.344C36.9883 171.504 37.3789 170.778 38.1602 170.166C38.9414 169.548 39.9017 169.238 41.041 169.238C42.2194 169.238 43.1471 169.535 43.8242 170.127C44.5078 170.713 44.8594 171.533 44.8789 172.588V177.588C44.8789 178.61 44.9863 179.375 45.2012 179.883V180H43.9512ZM40.2793 179.16C41.0605 179.16 41.7572 178.971 42.3691 178.594C42.9876 178.216 43.4368 177.712 43.7168 177.08V174.756H41.627C40.4616 174.769 39.5501 174.984 38.8926 175.4C38.235 175.811 37.9062 176.377 37.9062 177.1C37.9062 177.692 38.1243 178.184 38.5605 178.574C39.0033 178.965 39.5762 179.16 40.2793 179.16ZM56.5 174.824C56.5 176.471 56.1354 177.78 55.4062 178.75C54.6771 179.714 53.7005 180.195 52.4766 180.195C51.0312 180.195 49.9245 179.688 49.1562 178.672V184.062H47.9941V169.434H49.0781L49.1367 170.928C49.8984 169.801 51.002 169.238 52.4473 169.238C53.7103 169.238 54.6999 169.717 55.416 170.674C56.1387 171.631 56.5 172.959 56.5 174.658V174.824ZM55.3281 174.619C55.3281 173.271 55.0514 172.207 54.498 171.426C53.9447 170.645 53.1732 170.254 52.1836 170.254C51.4674 170.254 50.8522 170.426 50.3379 170.771C49.8236 171.117 49.4297 171.618 49.1562 172.275V177.344C49.4362 177.949 49.8366 178.411 50.3574 178.73C50.8783 179.049 51.4935 179.209 52.2031 179.209C53.1862 179.209 53.9512 178.818 54.498 178.037C55.0514 177.249 55.3281 176.11 55.3281 174.619ZM61.9688 175.156H60.3477V180H59.166V169.434H60.3477V174.121H61.9492L65.8262 169.434H67.3008L62.9648 174.561L67.7793 180H66.2363L61.9688 175.156ZM76.4121 169.434H77.584V180H76.4121V171.318L70.709 180H69.5469V169.434H70.709V178.125L76.4121 169.434ZM92.5254 169.434H93.6973V180H92.5254V171.318L86.8223 180H85.6602V169.434H86.8223V178.125L92.5254 169.434ZM105.602 179.209C106.415 179.209 107.096 178.981 107.643 178.525C108.196 178.063 108.495 177.467 108.541 176.738H109.664C109.632 177.383 109.43 177.972 109.059 178.506C108.688 179.033 108.193 179.447 107.574 179.746C106.962 180.046 106.305 180.195 105.602 180.195C104.215 180.195 103.115 179.714 102.301 178.75C101.493 177.786 101.09 176.491 101.09 174.863V174.512C101.09 173.47 101.272 172.549 101.637 171.748C102.001 170.947 102.522 170.329 103.199 169.893C103.883 169.456 104.68 169.238 105.592 169.238C106.751 169.238 107.704 169.583 108.453 170.273C109.208 170.964 109.612 171.872 109.664 172.998H108.541C108.489 172.171 108.189 171.504 107.643 170.996C107.102 170.488 106.419 170.234 105.592 170.234C104.537 170.234 103.717 170.615 103.131 171.377C102.551 172.139 102.262 173.206 102.262 174.58V174.922C102.262 176.27 102.551 177.321 103.131 178.076C103.717 178.831 104.54 179.209 105.602 179.209ZM114.879 175.156H113.258V180H112.076V169.434H113.258V174.121H114.859L118.736 169.434H120.211L115.875 174.561L120.689 180H119.146L114.879 175.156ZM122.506 180V169.434H126.383C127.724 169.434 128.753 169.674 129.469 170.156C130.185 170.632 130.543 171.331 130.543 172.256C130.543 172.783 130.383 173.255 130.064 173.672C129.745 174.082 129.28 174.382 128.668 174.57C129.358 174.701 129.911 174.997 130.328 175.459C130.751 175.921 130.963 176.458 130.963 177.07C130.963 178.001 130.618 178.724 129.928 179.238C129.244 179.746 128.274 180 127.018 180H122.506ZM123.668 175.137V179.023H127.057C127.936 179.023 128.613 178.854 129.088 178.516C129.563 178.177 129.801 177.689 129.801 177.051C129.801 176.465 129.563 175.999 129.088 175.654C128.613 175.309 127.936 175.137 127.057 175.137H123.668ZM123.668 174.16H126.627C128.463 174.134 129.381 173.509 129.381 172.285C129.381 171.641 129.127 171.172 128.619 170.879C128.118 170.579 127.372 170.43 126.383 170.43H123.668V174.16ZM137.662 180.195C136.764 180.195 135.95 179.974 135.221 179.531C134.498 179.089 133.935 178.473 133.531 177.686C133.128 176.891 132.926 176.003 132.926 175.02V174.6C132.926 173.584 133.121 172.669 133.512 171.855C133.909 171.042 134.459 170.404 135.162 169.941C135.865 169.473 136.627 169.238 137.447 169.238C138.73 169.238 139.745 169.678 140.494 170.557C141.249 171.429 141.627 172.624 141.627 174.141V174.795H134.088V175.02C134.088 176.217 134.43 177.217 135.113 178.018C135.803 178.812 136.669 179.209 137.711 179.209C138.336 179.209 138.886 179.095 139.361 178.867C139.843 178.639 140.279 178.275 140.67 177.773L141.402 178.33C140.543 179.574 139.296 180.195 137.662 180.195ZM137.447 170.234C136.568 170.234 135.826 170.557 135.221 171.201C134.622 171.846 134.257 172.712 134.127 173.799H140.465V173.672C140.432 172.656 140.143 171.829 139.596 171.191C139.049 170.553 138.333 170.234 137.447 170.234ZM152.398 174.824C152.398 176.471 152.034 177.78 151.305 178.75C150.576 179.714 149.599 180.195 148.375 180.195C146.93 180.195 145.823 179.688 145.055 178.672V184.062H143.893V169.434H144.977L145.035 170.928C145.797 169.801 146.9 169.238 148.346 169.238C149.609 169.238 150.598 169.717 151.314 170.674C152.037 171.631 152.398 172.959 152.398 174.658V174.824ZM151.227 174.619C151.227 173.271 150.95 172.207 150.396 171.426C149.843 170.645 149.072 170.254 148.082 170.254C147.366 170.254 146.751 170.426 146.236 170.771C145.722 171.117 145.328 171.618 145.055 172.275V177.344C145.335 177.949 145.735 178.411 146.256 178.73C146.777 179.049 147.392 179.209 148.102 179.209C149.085 179.209 149.85 178.818 150.396 178.037C150.95 177.249 151.227 176.11 151.227 174.619ZM156.285 173.271H159.332C160.113 173.271 160.797 173.415 161.383 173.701C161.975 173.981 162.421 174.372 162.721 174.873C163.027 175.374 163.18 175.957 163.18 176.621C163.18 177.643 162.828 178.464 162.125 179.082C161.428 179.694 160.484 180 159.293 180H155.123V169.434H156.285V173.271ZM156.285 174.268V179.014H159.312C160.152 179.014 160.81 178.802 161.285 178.379C161.767 177.956 162.008 177.376 162.008 176.641C162.008 175.938 161.773 175.371 161.305 174.941C160.842 174.505 160.208 174.281 159.4 174.268H156.285ZM166.764 180H165.592V169.434H166.764V180Z" fill="white"/>
<path d="M288.924 153H287.723V139.807H279.676V153H278.475V138.781H288.924V153ZM291.668 147.561C291.668 146.545 291.863 145.63 292.254 144.816C292.651 144.003 293.208 143.371 293.924 142.922C294.646 142.466 295.464 142.238 296.375 142.238C297.781 142.238 298.921 142.733 299.793 143.723C300.665 144.706 301.102 146.011 301.102 147.639V147.883C301.102 148.905 300.903 149.826 300.506 150.646C300.115 151.46 299.562 152.089 298.846 152.531C298.13 152.974 297.312 153.195 296.395 153.195C294.995 153.195 293.855 152.704 292.977 151.721C292.104 150.731 291.668 149.423 291.668 147.795V147.561ZM292.84 147.883C292.84 149.146 293.165 150.184 293.816 150.998C294.474 151.805 295.333 152.209 296.395 152.209C297.449 152.209 298.302 151.805 298.953 150.998C299.611 150.184 299.939 149.113 299.939 147.785V147.561C299.939 146.753 299.79 146.014 299.49 145.344C299.191 144.673 298.771 144.156 298.23 143.791C297.69 143.42 297.072 143.234 296.375 143.234C295.333 143.234 294.484 143.645 293.826 144.465C293.169 145.279 292.84 146.346 292.84 147.668V147.883ZM311.492 142.434V153H310.32V143.439H305.994L305.809 147.395C305.73 148.859 305.584 149.979 305.369 150.754C305.154 151.522 304.835 152.089 304.412 152.453C303.989 152.818 303.426 153 302.723 153H302.273V151.965L302.635 151.945C303.305 151.932 303.787 151.607 304.08 150.969C304.373 150.331 304.565 149.191 304.656 147.551L304.871 142.434H311.492ZM322.752 153H321.58V148.156H315.887V153H314.715V142.434H315.887V147.17H321.58V142.434H322.752V153ZM325.242 147.561C325.242 146.545 325.438 145.63 325.828 144.816C326.225 144.003 326.782 143.371 327.498 142.922C328.221 142.466 329.038 142.238 329.949 142.238C331.355 142.238 332.495 142.733 333.367 143.723C334.24 144.706 334.676 146.011 334.676 147.639V147.883C334.676 148.905 334.477 149.826 334.08 150.646C333.689 151.46 333.136 152.089 332.42 152.531C331.704 152.974 330.887 153.195 329.969 153.195C328.569 153.195 327.43 152.704 326.551 151.721C325.678 150.731 325.242 149.423 325.242 147.795V147.561ZM326.414 147.883C326.414 149.146 326.74 150.184 327.391 150.998C328.048 151.805 328.908 152.209 329.969 152.209C331.023 152.209 331.876 151.805 332.527 150.998C333.185 150.184 333.514 149.113 333.514 147.785V147.561C333.514 146.753 333.364 146.014 333.064 145.344C332.765 144.673 332.345 144.156 331.805 143.791C331.264 143.42 330.646 143.234 329.949 143.234C328.908 143.234 328.058 143.645 327.4 144.465C326.743 145.279 326.414 146.346 326.414 147.668V147.883ZM341.004 152.209C341.818 152.209 342.498 151.981 343.045 151.525C343.598 151.063 343.898 150.467 343.943 149.738H345.066C345.034 150.383 344.832 150.972 344.461 151.506C344.09 152.033 343.595 152.447 342.977 152.746C342.365 153.046 341.707 153.195 341.004 153.195C339.617 153.195 338.517 152.714 337.703 151.75C336.896 150.786 336.492 149.491 336.492 147.863V147.512C336.492 146.47 336.674 145.549 337.039 144.748C337.404 143.947 337.924 143.329 338.602 142.893C339.285 142.456 340.083 142.238 340.994 142.238C342.153 142.238 343.107 142.583 343.855 143.273C344.611 143.964 345.014 144.872 345.066 145.998H343.943C343.891 145.171 343.592 144.504 343.045 143.996C342.505 143.488 341.821 143.234 340.994 143.234C339.939 143.234 339.119 143.615 338.533 144.377C337.954 145.139 337.664 146.206 337.664 147.58V147.922C337.664 149.27 337.954 150.321 338.533 151.076C339.119 151.831 339.943 152.209 341.004 152.209ZM354.998 143.43H351.15V153H349.979V143.43H346.277V142.434H354.998V143.43ZM358.211 146.271H361.258C362.039 146.271 362.723 146.415 363.309 146.701C363.901 146.981 364.347 147.372 364.646 147.873C364.952 148.374 365.105 148.957 365.105 149.621C365.105 150.643 364.754 151.464 364.051 152.082C363.354 152.694 362.41 153 361.219 153H357.049V142.434H358.211V146.271ZM358.211 147.268V152.014H361.238C362.078 152.014 362.736 151.802 363.211 151.379C363.693 150.956 363.934 150.376 363.934 149.641C363.934 148.938 363.699 148.371 363.23 147.941C362.768 147.505 362.133 147.281 361.326 147.268H358.211ZM368.914 147.248H371.932C371.964 146.285 372.186 145.419 372.596 144.65C373.006 143.876 373.562 143.28 374.266 142.863C374.969 142.447 375.757 142.238 376.629 142.238C378.029 142.238 379.165 142.733 380.037 143.723C380.916 144.712 381.355 146.021 381.355 147.648V147.883C381.355 148.898 381.157 149.816 380.76 150.637C380.363 151.457 379.806 152.089 379.09 152.531C378.374 152.974 377.56 153.195 376.648 153.195C375.301 153.195 374.194 152.74 373.328 151.828C372.462 150.91 371.997 149.715 371.932 148.244H368.914V153H367.752V142.434H368.914V147.248ZM373.084 147.883C373.084 149.146 373.41 150.184 374.061 150.998C374.718 151.805 375.581 152.209 376.648 152.209C377.697 152.209 378.546 151.805 379.197 150.998C379.855 150.184 380.184 149.113 380.184 147.785V147.561C380.184 146.311 379.855 145.279 379.197 144.465C378.54 143.645 377.684 143.234 376.629 143.234C375.581 143.234 374.728 143.645 374.07 144.465C373.413 145.279 373.084 146.346 373.084 147.668V147.883ZM263.963 174.561C263.963 173.545 264.158 172.63 264.549 171.816C264.946 171.003 265.503 170.371 266.219 169.922C266.941 169.466 267.758 169.238 268.67 169.238C270.076 169.238 271.215 169.733 272.088 170.723C272.96 171.706 273.396 173.011 273.396 174.639V174.883C273.396 175.905 273.198 176.826 272.801 177.646C272.41 178.46 271.857 179.089 271.141 179.531C270.424 179.974 269.607 180.195 268.689 180.195C267.29 180.195 266.15 179.704 265.271 178.721C264.399 177.731 263.963 176.423 263.963 174.795V174.561ZM265.135 174.883C265.135 176.146 265.46 177.184 266.111 177.998C266.769 178.805 267.628 179.209 268.689 179.209C269.744 179.209 270.597 178.805 271.248 177.998C271.906 177.184 272.234 176.113 272.234 174.785V174.561C272.234 173.753 272.085 173.014 271.785 172.344C271.486 171.673 271.066 171.156 270.525 170.791C269.985 170.42 269.367 170.234 268.67 170.234C267.628 170.234 266.779 170.645 266.121 171.465C265.464 172.279 265.135 173.346 265.135 174.668V174.883ZM280.076 170.137C281.417 170.137 282.505 170.576 283.338 171.455C284.171 172.327 284.588 173.486 284.588 174.932V175.186C284.588 176.143 284.396 177.005 284.012 177.773C283.634 178.535 283.087 179.131 282.371 179.561C281.661 179.984 280.844 180.195 279.92 180.195C278.527 180.195 277.397 179.733 276.531 178.809C275.672 177.878 275.242 176.637 275.242 175.088V174.15C275.242 171.963 275.659 170.215 276.492 168.906C277.326 167.598 278.51 166.816 280.047 166.562C281.017 166.406 281.697 166.195 282.088 165.928C282.485 165.661 282.684 165.296 282.684 164.834H283.689C283.689 165.381 283.576 165.833 283.348 166.191C283.12 166.549 282.778 166.839 282.322 167.061C281.867 167.275 281.17 167.458 280.232 167.607C279.158 167.777 278.292 168.236 277.635 168.984C276.984 169.727 276.561 170.723 276.365 171.973C276.782 171.426 277.303 170.983 277.928 170.645C278.559 170.306 279.275 170.137 280.076 170.137ZM276.414 174.941V175.186C276.414 176.377 276.736 177.347 277.381 178.096C278.025 178.838 278.872 179.209 279.92 179.209C280.975 179.209 281.821 178.835 282.459 178.086C283.097 177.331 283.416 176.341 283.416 175.117V174.863C283.416 173.763 283.09 172.865 282.439 172.168C281.795 171.471 280.949 171.123 279.9 171.123C278.852 171.123 278.009 171.478 277.371 172.188C276.733 172.891 276.414 173.809 276.414 174.941ZM290.184 178.32L293.27 169.434H294.529L290.018 181.797L289.783 182.344C289.204 183.626 288.309 184.268 287.098 184.268C286.818 184.268 286.518 184.222 286.199 184.131L286.189 183.164L286.795 183.223C287.368 183.223 287.83 183.079 288.182 182.793C288.54 182.513 288.842 182.028 289.09 181.338L289.607 179.912L285.623 169.434H286.902L290.184 178.32ZM300.115 179.209C300.929 179.209 301.609 178.981 302.156 178.525C302.71 178.063 303.009 177.467 303.055 176.738H304.178C304.145 177.383 303.943 177.972 303.572 178.506C303.201 179.033 302.706 179.447 302.088 179.746C301.476 180.046 300.818 180.195 300.115 180.195C298.729 180.195 297.628 179.714 296.814 178.75C296.007 177.786 295.604 176.491 295.604 174.863V174.512C295.604 173.47 295.786 172.549 296.15 171.748C296.515 170.947 297.036 170.329 297.713 169.893C298.396 169.456 299.194 169.238 300.105 169.238C301.264 169.238 302.218 169.583 302.967 170.273C303.722 170.964 304.126 171.872 304.178 172.998H303.055C303.003 172.171 302.703 171.504 302.156 170.996C301.616 170.488 300.932 170.234 300.105 170.234C299.051 170.234 298.23 170.615 297.645 171.377C297.065 172.139 296.775 173.206 296.775 174.58V174.922C296.775 176.27 297.065 177.321 297.645 178.076C298.23 178.831 299.054 179.209 300.115 179.209ZM314.109 170.43H310.262V180H309.09V170.43H305.389V169.434H314.109V170.43ZM324.529 174.824C324.529 176.471 324.165 177.78 323.436 178.75C322.706 179.714 321.73 180.195 320.506 180.195C319.061 180.195 317.954 179.688 317.186 178.672V184.062H316.023V169.434H317.107L317.166 170.928C317.928 169.801 319.031 169.238 320.477 169.238C321.74 169.238 322.729 169.717 323.445 170.674C324.168 171.631 324.529 172.959 324.529 174.658V174.824ZM323.357 174.619C323.357 173.271 323.081 172.207 322.527 171.426C321.974 170.645 321.202 170.254 320.213 170.254C319.497 170.254 318.882 170.426 318.367 170.771C317.853 171.117 317.459 171.618 317.186 172.275V177.344C317.465 177.949 317.866 178.411 318.387 178.73C318.908 179.049 319.523 179.209 320.232 179.209C321.215 179.209 321.98 178.818 322.527 178.037C323.081 177.249 323.357 176.11 323.357 174.619ZM326.482 174.561C326.482 173.545 326.678 172.63 327.068 171.816C327.465 171.003 328.022 170.371 328.738 169.922C329.461 169.466 330.278 169.238 331.189 169.238C332.596 169.238 333.735 169.733 334.607 170.723C335.48 171.706 335.916 173.011 335.916 174.639V174.883C335.916 175.905 335.717 176.826 335.32 177.646C334.93 178.46 334.376 179.089 333.66 179.531C332.944 179.974 332.127 180.195 331.209 180.195C329.809 180.195 328.67 179.704 327.791 178.721C326.919 177.731 326.482 176.423 326.482 174.795V174.561ZM327.654 174.883C327.654 176.146 327.98 177.184 328.631 177.998C329.288 178.805 330.148 179.209 331.209 179.209C332.264 179.209 333.117 178.805 333.768 177.998C334.425 177.184 334.754 176.113 334.754 174.785V174.561C334.754 173.753 334.604 173.014 334.305 172.344C334.005 171.673 333.585 171.156 333.045 170.791C332.505 170.42 331.886 170.234 331.189 170.234C330.148 170.234 329.298 170.645 328.641 171.465C327.983 172.279 327.654 173.346 327.654 174.668V174.883ZM342.43 180.195C341.531 180.195 340.717 179.974 339.988 179.531C339.266 179.089 338.702 178.473 338.299 177.686C337.895 176.891 337.693 176.003 337.693 175.02V174.6C337.693 173.584 337.889 172.669 338.279 171.855C338.676 171.042 339.227 170.404 339.93 169.941C340.633 169.473 341.395 169.238 342.215 169.238C343.497 169.238 344.513 169.678 345.262 170.557C346.017 171.429 346.395 172.624 346.395 174.141V174.795H338.855V175.02C338.855 176.217 339.197 177.217 339.881 178.018C340.571 178.812 341.437 179.209 342.479 179.209C343.104 179.209 343.654 179.095 344.129 178.867C344.611 178.639 345.047 178.275 345.438 177.773L346.17 178.33C345.311 179.574 344.064 180.195 342.43 180.195ZM342.215 170.234C341.336 170.234 340.594 170.557 339.988 171.201C339.389 171.846 339.025 172.712 338.895 173.799H345.232V173.672C345.2 172.656 344.91 171.829 344.363 171.191C343.816 170.553 343.1 170.234 342.215 170.234ZM356.785 180H355.613V175.156H349.92V180H348.748V169.434H349.92V174.17H355.613V169.434H356.785V180ZM368.035 180H366.863V175.156H361.17V180H359.998V169.434H361.17V174.17H366.863V169.434H368.035V180ZM372.459 173.271H375.506C376.287 173.271 376.971 173.415 377.557 173.701C378.149 173.981 378.595 174.372 378.895 174.873C379.201 175.374 379.354 175.957 379.354 176.621C379.354 177.643 379.002 178.464 378.299 179.082C377.602 179.694 376.658 180 375.467 180H371.297V169.434H372.459V173.271ZM372.459 174.268V179.014H375.486C376.326 179.014 376.984 178.802 377.459 178.379C377.941 177.956 378.182 177.376 378.182 176.641C378.182 175.938 377.947 175.371 377.479 174.941C377.016 174.505 376.382 174.281 375.574 174.268H372.459ZM382.938 180H381.766V169.434H382.938V180ZM393.133 169.434H394.305V180H393.133V171.318L387.43 180H386.268V169.434H387.43V178.125L393.133 169.434ZM393.074 165.625C393.074 166.374 392.817 166.979 392.303 167.441C391.795 167.904 391.111 168.135 390.252 168.135C389.406 168.135 388.722 167.907 388.201 167.451C387.687 166.989 387.43 166.38 387.43 165.625H388.426C388.426 166.165 388.585 166.579 388.904 166.865C389.23 167.152 389.679 167.295 390.252 167.295C390.825 167.295 391.271 167.145 391.59 166.846C391.915 166.546 392.078 166.139 392.078 165.625H393.074Z" fill="white"/>
<path d="M480.91 153H479.738V140.188L475.871 141.623V140.529L480.715 138.732H480.91V153ZM495.139 147.072C495.139 149.077 494.771 150.601 494.035 151.643C493.299 152.678 492.215 153.195 490.783 153.195C489.377 153.195 488.299 152.688 487.551 151.672C486.802 150.65 486.418 149.165 486.398 147.219V144.67C486.398 142.671 486.77 141.158 487.512 140.129C488.254 139.1 489.338 138.586 490.764 138.586C492.17 138.586 493.244 139.084 493.986 140.08C494.729 141.07 495.113 142.531 495.139 144.465V147.072ZM493.967 144.523C493.967 142.896 493.7 141.665 493.166 140.832C492.639 139.999 491.838 139.582 490.764 139.582C489.709 139.582 488.915 139.989 488.381 140.803C487.847 141.617 487.574 142.818 487.561 144.406V147.199C487.561 148.82 487.834 150.061 488.381 150.92C488.934 151.779 489.735 152.209 490.783 152.209C491.825 152.209 492.613 151.789 493.146 150.949C493.687 150.109 493.96 148.879 493.967 147.258V144.523ZM502.268 147.805C502.268 146.086 502.603 144.729 503.273 143.732C503.951 142.736 504.885 142.238 506.076 142.238C506.76 142.238 507.339 142.391 507.814 142.697V138H508.977V142.736C509.458 142.404 510.057 142.238 510.773 142.238C511.9 142.238 512.801 142.691 513.479 143.596C514.156 144.501 514.523 145.76 514.582 147.375L514.592 148.01C514.592 149.618 514.253 150.887 513.576 151.818C512.899 152.743 511.971 153.205 510.793 153.205C510.09 153.205 509.484 153.052 508.977 152.746V157.062H507.814V152.756C507.313 153.055 506.727 153.205 506.057 153.205C504.943 153.205 504.051 152.785 503.381 151.945C502.71 151.099 502.342 149.93 502.277 148.439L502.268 147.805ZM513.43 147.805C513.43 146.385 513.173 145.269 512.658 144.455C512.15 143.641 511.438 143.234 510.52 143.234C509.855 143.234 509.341 143.378 508.977 143.664V151.838C509.387 152.092 509.908 152.219 510.539 152.219C511.451 152.219 512.16 151.854 512.668 151.125C513.176 150.389 513.43 149.283 513.43 147.805ZM503.439 148.01C503.439 149.338 503.684 150.373 504.172 151.115C504.66 151.851 505.363 152.219 506.281 152.219C506.893 152.219 507.404 152.085 507.814 151.818V143.635C507.437 143.368 506.932 143.234 506.301 143.234C505.389 143.234 504.683 143.641 504.182 144.455C503.687 145.262 503.439 146.447 503.439 148.01ZM516.555 147.561C516.555 146.545 516.75 145.63 517.141 144.816C517.538 144.003 518.094 143.371 518.811 142.922C519.533 142.466 520.35 142.238 521.262 142.238C522.668 142.238 523.807 142.733 524.68 143.723C525.552 144.706 525.988 146.011 525.988 147.639V147.883C525.988 148.905 525.79 149.826 525.393 150.646C525.002 151.46 524.449 152.089 523.732 152.531C523.016 152.974 522.199 153.195 521.281 153.195C519.882 153.195 518.742 152.704 517.863 151.721C516.991 150.731 516.555 149.423 516.555 147.795V147.561ZM517.727 147.883C517.727 149.146 518.052 150.184 518.703 150.998C519.361 151.805 520.22 152.209 521.281 152.209C522.336 152.209 523.189 151.805 523.84 150.998C524.497 150.184 524.826 149.113 524.826 147.785V147.561C524.826 146.753 524.676 146.014 524.377 145.344C524.077 144.673 523.658 144.156 523.117 143.791C522.577 143.42 521.958 143.234 521.262 143.234C520.22 143.234 519.37 143.645 518.713 144.465C518.055 145.279 517.727 146.346 517.727 147.668V147.883ZM536.525 153H535.354V148.156H529.66V153H528.488V142.434H529.66V147.17H535.354V142.434H536.525V153ZM547.248 143.43H543.4V153H542.229V143.43H538.527V142.434H547.248V143.43ZM555.686 153C555.568 152.668 555.493 152.176 555.461 151.525C555.051 152.059 554.527 152.473 553.889 152.766C553.257 153.052 552.587 153.195 551.877 153.195C550.861 153.195 550.038 152.912 549.406 152.346C548.781 151.779 548.469 151.063 548.469 150.197C548.469 149.169 548.895 148.355 549.748 147.756C550.607 147.157 551.802 146.857 553.332 146.857H555.451V145.656C555.451 144.901 555.217 144.309 554.748 143.879C554.286 143.443 553.609 143.225 552.717 143.225C551.903 143.225 551.229 143.433 550.695 143.85C550.161 144.266 549.895 144.768 549.895 145.354L548.723 145.344C548.723 144.504 549.113 143.778 549.895 143.166C550.676 142.548 551.636 142.238 552.775 142.238C553.954 142.238 554.882 142.535 555.559 143.127C556.242 143.713 556.594 144.533 556.613 145.588V150.588C556.613 151.61 556.721 152.375 556.936 152.883V153H555.686ZM552.014 152.16C552.795 152.16 553.492 151.971 554.104 151.594C554.722 151.216 555.171 150.712 555.451 150.08V147.756H553.361C552.196 147.769 551.285 147.984 550.627 148.4C549.969 148.811 549.641 149.377 549.641 150.1C549.641 150.692 549.859 151.184 550.295 151.574C550.738 151.965 551.311 152.16 552.014 152.16ZM567.854 153H566.682V148.156H560.988V153H559.816V142.434H560.988V147.17H566.682V142.434H567.854V153ZM570.344 147.561C570.344 146.545 570.539 145.63 570.93 144.816C571.327 144.003 571.883 143.371 572.6 142.922C573.322 142.466 574.139 142.238 575.051 142.238C576.457 142.238 577.596 142.733 578.469 143.723C579.341 144.706 579.777 146.011 579.777 147.639V147.883C579.777 148.905 579.579 149.826 579.182 150.646C578.791 151.46 578.238 152.089 577.521 152.531C576.805 152.974 575.988 153.195 575.07 153.195C573.671 153.195 572.531 152.704 571.652 151.721C570.78 150.731 570.344 149.423 570.344 147.795V147.561ZM571.516 147.883C571.516 149.146 571.841 150.184 572.492 150.998C573.15 151.805 574.009 152.209 575.07 152.209C576.125 152.209 576.978 151.805 577.629 150.998C578.286 150.184 578.615 149.113 578.615 147.785V147.561C578.615 146.753 578.465 146.014 578.166 145.344C577.867 144.673 577.447 144.156 576.906 143.791C576.366 143.42 575.747 143.234 575.051 143.234C574.009 143.234 573.16 143.645 572.502 144.465C571.844 145.279 571.516 146.346 571.516 147.668V147.883ZM582.326 153V142.434H586.203C587.544 142.434 588.573 142.674 589.289 143.156C590.005 143.632 590.363 144.331 590.363 145.256C590.363 145.783 590.204 146.255 589.885 146.672C589.566 147.082 589.1 147.382 588.488 147.57C589.178 147.701 589.732 147.997 590.148 148.459C590.572 148.921 590.783 149.458 590.783 150.07C590.783 151.001 590.438 151.724 589.748 152.238C589.064 152.746 588.094 153 586.838 153H582.326ZM583.488 148.137V152.023H586.877C587.756 152.023 588.433 151.854 588.908 151.516C589.383 151.177 589.621 150.689 589.621 150.051C589.621 149.465 589.383 148.999 588.908 148.654C588.433 148.309 587.756 148.137 586.877 148.137H583.488ZM583.488 147.16H586.447C588.283 147.134 589.201 146.509 589.201 145.285C589.201 144.641 588.947 144.172 588.439 143.879C587.938 143.579 587.193 143.43 586.203 143.43H583.488V147.16ZM476.018 180H474.846V175.156H469.152V180H467.98V169.434H469.152V174.17H474.846V169.434H476.018V180ZM485.822 180C485.705 179.668 485.63 179.176 485.598 178.525C485.188 179.059 484.663 179.473 484.025 179.766C483.394 180.052 482.723 180.195 482.014 180.195C480.998 180.195 480.174 179.912 479.543 179.346C478.918 178.779 478.605 178.063 478.605 177.197C478.605 176.169 479.032 175.355 479.885 174.756C480.744 174.157 481.939 173.857 483.469 173.857H485.588V172.656C485.588 171.901 485.354 171.309 484.885 170.879C484.423 170.443 483.745 170.225 482.854 170.225C482.04 170.225 481.366 170.433 480.832 170.85C480.298 171.266 480.031 171.768 480.031 172.354L478.859 172.344C478.859 171.504 479.25 170.778 480.031 170.166C480.812 169.548 481.773 169.238 482.912 169.238C484.09 169.238 485.018 169.535 485.695 170.127C486.379 170.713 486.73 171.533 486.75 172.588V177.588C486.75 178.61 486.857 179.375 487.072 179.883V180H485.822ZM482.15 179.16C482.932 179.16 483.628 178.971 484.24 178.594C484.859 178.216 485.308 177.712 485.588 177.08V174.756H483.498C482.333 174.769 481.421 174.984 480.764 175.4C480.106 175.811 479.777 176.377 479.777 177.1C479.777 177.692 479.995 178.184 480.432 178.574C480.874 178.965 481.447 179.16 482.15 179.16ZM502.326 170.43H498.479V180H497.307V170.43H493.605V169.434H502.326V170.43ZM507.561 180.195C506.662 180.195 505.848 179.974 505.119 179.531C504.396 179.089 503.833 178.473 503.43 177.686C503.026 176.891 502.824 176.003 502.824 175.02V174.6C502.824 173.584 503.02 172.669 503.41 171.855C503.807 171.042 504.357 170.404 505.061 169.941C505.764 169.473 506.525 169.238 507.346 169.238C508.628 169.238 509.644 169.678 510.393 170.557C511.148 171.429 511.525 172.624 511.525 174.141V174.795H503.986V175.02C503.986 176.217 504.328 177.217 505.012 178.018C505.702 178.812 506.568 179.209 507.609 179.209C508.234 179.209 508.785 179.095 509.26 178.867C509.742 178.639 510.178 178.275 510.568 177.773L511.301 178.33C510.441 179.574 509.195 180.195 507.561 180.195ZM507.346 170.234C506.467 170.234 505.725 170.557 505.119 171.201C504.52 171.846 504.156 172.712 504.025 173.799H510.363V173.672C510.331 172.656 510.041 171.829 509.494 171.191C508.947 170.553 508.231 170.234 507.346 170.234ZM522.297 174.824C522.297 176.471 521.932 177.78 521.203 178.75C520.474 179.714 519.497 180.195 518.273 180.195C516.828 180.195 515.721 179.688 514.953 178.672V184.062H513.791V169.434H514.875L514.934 170.928C515.695 169.801 516.799 169.238 518.244 169.238C519.507 169.238 520.497 169.717 521.213 170.674C521.936 171.631 522.297 172.959 522.297 174.658V174.824ZM521.125 174.619C521.125 173.271 520.848 172.207 520.295 171.426C519.742 170.645 518.97 170.254 517.98 170.254C517.264 170.254 516.649 170.426 516.135 170.771C515.62 171.117 515.227 171.618 514.953 172.275V177.344C515.233 177.949 515.633 178.411 516.154 178.73C516.675 179.049 517.29 179.209 518 179.209C518.983 179.209 519.748 178.818 520.295 178.037C520.848 177.249 521.125 176.11 521.125 174.619ZM533.391 174.824C533.391 176.471 533.026 177.78 532.297 178.75C531.568 179.714 530.591 180.195 529.367 180.195C527.922 180.195 526.815 179.688 526.047 178.672V184.062H524.885V169.434H525.969L526.027 170.928C526.789 169.801 527.893 169.238 529.338 169.238C530.601 169.238 531.59 169.717 532.307 170.674C533.029 171.631 533.391 172.959 533.391 174.658V174.824ZM532.219 174.619C532.219 173.271 531.942 172.207 531.389 171.426C530.835 170.645 530.064 170.254 529.074 170.254C528.358 170.254 527.743 170.426 527.229 170.771C526.714 171.117 526.32 171.618 526.047 172.275V177.344C526.327 177.949 526.727 178.411 527.248 178.73C527.769 179.049 528.384 179.209 529.094 179.209C530.077 179.209 530.842 178.818 531.389 178.037C531.942 177.249 532.219 176.11 532.219 174.619ZM542.932 169.434H544.104V180H542.932V171.318L537.229 180H536.066V169.434H537.229V178.125L542.932 169.434ZM554.826 170.43H550.979V180H549.807V170.43H546.105V169.434H554.826V170.43ZM555.695 174.561C555.695 173.545 555.891 172.63 556.281 171.816C556.678 171.003 557.235 170.371 557.951 169.922C558.674 169.466 559.491 169.238 560.402 169.238C561.809 169.238 562.948 169.733 563.82 170.723C564.693 171.706 565.129 173.011 565.129 174.639V174.883C565.129 175.905 564.93 176.826 564.533 177.646C564.143 178.46 563.589 179.089 562.873 179.531C562.157 179.974 561.34 180.195 560.422 180.195C559.022 180.195 557.883 179.704 557.004 178.721C556.132 177.731 555.695 176.423 555.695 174.795V174.561ZM556.867 174.883C556.867 176.146 557.193 177.184 557.844 177.998C558.501 178.805 559.361 179.209 560.422 179.209C561.477 179.209 562.329 178.805 562.98 177.998C563.638 177.184 563.967 176.113 563.967 174.785V174.561C563.967 173.753 563.817 173.014 563.518 172.344C563.218 171.673 562.798 171.156 562.258 170.791C561.717 170.42 561.099 170.234 560.402 170.234C559.361 170.234 558.511 170.645 557.854 171.465C557.196 172.279 556.867 173.346 556.867 174.668V174.883ZM576.047 174.824C576.047 176.471 575.682 177.78 574.953 178.75C574.224 179.714 573.247 180.195 572.023 180.195C570.578 180.195 569.471 179.688 568.703 178.672V184.062H567.541V169.434H568.625L568.684 170.928C569.445 169.801 570.549 169.238 571.994 169.238C573.257 169.238 574.247 169.717 574.963 170.674C575.686 171.631 576.047 172.959 576.047 174.658V174.824ZM574.875 174.619C574.875 173.271 574.598 172.207 574.045 171.426C573.492 170.645 572.72 170.254 571.73 170.254C571.014 170.254 570.399 170.426 569.885 170.771C569.37 171.117 568.977 171.618 568.703 172.275V177.344C568.983 177.949 569.383 178.411 569.904 178.73C570.425 179.049 571.04 179.209 571.75 179.209C572.733 179.209 573.498 178.818 574.045 178.037C574.598 177.249 574.875 176.11 574.875 174.619ZM585.588 169.434H586.76V180H585.588V171.318L579.885 180H578.723V169.434H579.885V178.125L585.588 169.434ZM596.838 169.434H598.01V180H596.838V171.318L591.135 180H589.973V169.434H591.135V178.125L596.838 169.434Z" fill="white"/>
<path d="M719.754 138.674V139.699H719.617C717.918 139.699 716.58 140.201 715.604 141.203C714.627 142.199 714.087 143.586 713.982 145.363C714.373 144.823 714.871 144.406 715.477 144.113C716.082 143.814 716.759 143.664 717.508 143.664C718.758 143.664 719.751 144.097 720.486 144.963C721.229 145.822 721.6 146.949 721.6 148.342C721.6 149.266 721.427 150.1 721.082 150.842C720.737 151.584 720.242 152.163 719.598 152.58C718.953 152.99 718.217 153.195 717.391 153.195C716.03 153.195 714.923 152.704 714.07 151.721C713.217 150.731 712.791 149.455 712.791 147.893V146.721C712.791 144.175 713.37 142.206 714.529 140.812C715.688 139.413 717.332 138.7 719.461 138.674H719.754ZM717.322 144.67C716.58 144.67 715.887 144.891 715.242 145.334C714.604 145.77 714.178 146.327 713.963 147.004V148C713.963 149.237 714.279 150.246 714.91 151.027C715.548 151.809 716.375 152.199 717.391 152.199C718.302 152.199 719.038 151.838 719.598 151.115C720.164 150.393 720.447 149.481 720.447 148.381C720.447 147.261 720.164 146.363 719.598 145.686C719.038 145.008 718.279 144.67 717.322 144.67ZM731.873 148.156H730.252V153H729.07V142.434H730.252V147.121H731.854L735.73 142.434H737.205L732.869 147.561L737.684 153H736.141L731.873 148.156ZM745.223 151.418L749.422 142.434H750.867V153H749.695V144.328L745.633 153H744.803L740.662 144.133V153H739.5V142.434H741.033L745.223 151.418ZM671.688 180V169.434H675.564C676.906 169.434 677.934 169.674 678.65 170.156C679.367 170.632 679.725 171.331 679.725 172.256C679.725 172.783 679.565 173.255 679.246 173.672C678.927 174.082 678.462 174.382 677.85 174.57C678.54 174.701 679.093 174.997 679.51 175.459C679.933 175.921 680.145 176.458 680.145 177.07C680.145 178.001 679.799 178.724 679.109 179.238C678.426 179.746 677.456 180 676.199 180H671.688ZM672.85 175.137V179.023H676.238C677.117 179.023 677.794 178.854 678.27 178.516C678.745 178.177 678.982 177.689 678.982 177.051C678.982 176.465 678.745 175.999 678.27 175.654C677.794 175.309 677.117 175.137 676.238 175.137H672.85ZM672.85 174.16H675.809C677.645 174.134 678.562 173.509 678.562 172.285C678.562 171.641 678.309 171.172 677.801 170.879C677.299 170.579 676.554 170.43 675.564 170.43H672.85V174.16ZM686.844 180.195C685.945 180.195 685.132 179.974 684.402 179.531C683.68 179.089 683.117 178.473 682.713 177.686C682.309 176.891 682.107 176.003 682.107 175.02V174.6C682.107 173.584 682.303 172.669 682.693 171.855C683.09 171.042 683.641 170.404 684.344 169.941C685.047 169.473 685.809 169.238 686.629 169.238C687.911 169.238 688.927 169.678 689.676 170.557C690.431 171.429 690.809 172.624 690.809 174.141V174.795H683.27V175.02C683.27 176.217 683.611 177.217 684.295 178.018C684.985 178.812 685.851 179.209 686.893 179.209C687.518 179.209 688.068 179.095 688.543 178.867C689.025 178.639 689.461 178.275 689.852 177.773L690.584 178.33C689.725 179.574 688.478 180.195 686.844 180.195ZM686.629 170.234C685.75 170.234 685.008 170.557 684.402 171.201C683.803 171.846 683.439 172.712 683.309 173.799H689.646V173.672C689.614 172.656 689.324 171.829 688.777 171.191C688.23 170.553 687.514 170.234 686.629 170.234ZM701.209 169.434V180H700.037V170.439H695.711L695.525 174.395C695.447 175.859 695.301 176.979 695.086 177.754C694.871 178.522 694.552 179.089 694.129 179.453C693.706 179.818 693.143 180 692.439 180H691.99V178.965L692.352 178.945C693.022 178.932 693.504 178.607 693.797 177.969C694.09 177.331 694.282 176.191 694.373 174.551L694.588 169.434H701.209ZM703.709 174.561C703.709 173.545 703.904 172.63 704.295 171.816C704.692 171.003 705.249 170.371 705.965 169.922C706.688 169.466 707.505 169.238 708.416 169.238C709.822 169.238 710.962 169.733 711.834 170.723C712.706 171.706 713.143 173.011 713.143 174.639V174.883C713.143 175.905 712.944 176.826 712.547 177.646C712.156 178.46 711.603 179.089 710.887 179.531C710.171 179.974 709.354 180.195 708.436 180.195C707.036 180.195 705.896 179.704 705.018 178.721C704.145 177.731 703.709 176.423 703.709 174.795V174.561ZM704.881 174.883C704.881 176.146 705.206 177.184 705.857 177.998C706.515 178.805 707.374 179.209 708.436 179.209C709.49 179.209 710.343 178.805 710.994 177.998C711.652 177.184 711.98 176.113 711.98 174.785V174.561C711.98 173.753 711.831 173.014 711.531 172.344C711.232 171.673 710.812 171.156 710.271 170.791C709.731 170.42 709.113 170.234 708.416 170.234C707.374 170.234 706.525 170.645 705.867 171.465C705.21 172.279 704.881 173.346 704.881 174.668V174.883ZM714.617 179.014L715.135 178.34C715.955 177.227 716.427 175.599 716.551 173.457L716.736 169.434H722.977V179.014H724.07V183.105H722.908V180H714.969V183.105H713.846L713.855 179.014H714.617ZM715.965 179.014H721.805V170.527H717.85L717.723 173.271C717.605 175.791 717.02 177.705 715.965 179.014ZM725.682 174.561C725.682 173.545 725.877 172.63 726.268 171.816C726.665 171.003 727.221 170.371 727.938 169.922C728.66 169.466 729.477 169.238 730.389 169.238C731.795 169.238 732.934 169.733 733.807 170.723C734.679 171.706 735.115 173.011 735.115 174.639V174.883C735.115 175.905 734.917 176.826 734.52 177.646C734.129 178.46 733.576 179.089 732.859 179.531C732.143 179.974 731.326 180.195 730.408 180.195C729.008 180.195 727.869 179.704 726.99 178.721C726.118 177.731 725.682 176.423 725.682 174.795V174.561ZM726.854 174.883C726.854 176.146 727.179 177.184 727.83 177.998C728.488 178.805 729.347 179.209 730.408 179.209C731.463 179.209 732.316 178.805 732.967 177.998C733.624 177.184 733.953 176.113 733.953 174.785V174.561C733.953 173.753 733.803 173.014 733.504 172.344C733.204 171.673 732.785 171.156 732.244 170.791C731.704 170.42 731.085 170.234 730.389 170.234C729.347 170.234 728.497 170.645 727.84 171.465C727.182 172.279 726.854 173.346 726.854 174.668V174.883ZM746.033 174.824C746.033 176.471 745.669 177.78 744.939 178.75C744.21 179.714 743.234 180.195 742.01 180.195C740.564 180.195 739.458 179.688 738.689 178.672V184.062H737.527V169.434H738.611L738.67 170.928C739.432 169.801 740.535 169.238 741.98 169.238C743.243 169.238 744.233 169.717 744.949 170.674C745.672 171.631 746.033 172.959 746.033 174.658V174.824ZM744.861 174.619C744.861 173.271 744.585 172.207 744.031 171.426C743.478 170.645 742.706 170.254 741.717 170.254C741.001 170.254 740.385 170.426 739.871 170.771C739.357 171.117 738.963 171.618 738.689 172.275V177.344C738.969 177.949 739.37 178.411 739.891 178.73C740.411 179.049 741.027 179.209 741.736 179.209C742.719 179.209 743.484 178.818 744.031 178.037C744.585 177.249 744.861 176.11 744.861 174.619ZM747.986 174.561C747.986 173.545 748.182 172.63 748.572 171.816C748.969 171.003 749.526 170.371 750.242 169.922C750.965 169.466 751.782 169.238 752.693 169.238C754.1 169.238 755.239 169.733 756.111 170.723C756.984 171.706 757.42 173.011 757.42 174.639V174.883C757.42 175.905 757.221 176.826 756.824 177.646C756.434 178.46 755.88 179.089 755.164 179.531C754.448 179.974 753.631 180.195 752.713 180.195C751.313 180.195 750.174 179.704 749.295 178.721C748.423 177.731 747.986 176.423 747.986 174.795V174.561ZM749.158 174.883C749.158 176.146 749.484 177.184 750.135 177.998C750.792 178.805 751.652 179.209 752.713 179.209C753.768 179.209 754.62 178.805 755.271 177.998C755.929 177.184 756.258 176.113 756.258 174.785V174.561C756.258 173.753 756.108 173.014 755.809 172.344C755.509 171.673 755.089 171.156 754.549 170.791C754.008 170.42 753.39 170.234 752.693 170.234C751.652 170.234 750.802 170.645 750.145 171.465C749.487 172.279 749.158 173.346 749.158 174.668V174.883ZM767.703 175.117H766.297V180H765.125V175.117H763.729L759.822 180H758.338L762.713 174.58L758.826 169.434H760.242L763.709 174.072H765.125V169.434H766.297V174.072H767.723L771.189 169.434H772.625L768.719 174.58L773.104 180H771.609L767.703 175.117ZM778.875 180.195C777.977 180.195 777.163 179.974 776.434 179.531C775.711 179.089 775.148 178.473 774.744 177.686C774.34 176.891 774.139 176.003 774.139 175.02V174.6C774.139 173.584 774.334 172.669 774.725 171.855C775.122 171.042 775.672 170.404 776.375 169.941C777.078 169.473 777.84 169.238 778.66 169.238C779.943 169.238 780.958 169.678 781.707 170.557C782.462 171.429 782.84 172.624 782.84 174.141V174.795H775.301V175.02C775.301 176.217 775.643 177.217 776.326 178.018C777.016 178.812 777.882 179.209 778.924 179.209C779.549 179.209 780.099 179.095 780.574 178.867C781.056 178.639 781.492 178.275 781.883 177.773L782.615 178.33C781.756 179.574 780.509 180.195 778.875 180.195ZM778.66 170.234C777.781 170.234 777.039 170.557 776.434 171.201C775.835 171.846 775.47 172.712 775.34 173.799H781.678V173.672C781.645 172.656 781.355 171.829 780.809 171.191C780.262 170.553 779.546 170.234 778.66 170.234ZM787.986 175.156H786.365V180H785.184V169.434H786.365V174.121H787.967L791.844 169.434H793.318L788.982 174.561L793.797 180H792.254L787.986 175.156Z" fill="white"/>
<g clip-path="url(#clip0_3_87)">
<path d="M546.389 4.62187C546.572 4.62187 546.756 4.58453 546.933 4.50453C547.315 4.33391 547.701 4.1725 548.093 4.02453C548.783 3.76188 549.129 2.9925 548.867 2.30453C548.605 1.61516 547.835 1.27391 547.148 1.52985C546.706 1.69782 546.271 1.87922 545.843 2.07125C545.171 2.37266 544.869 3.16188 545.172 3.83391C545.393 4.32844 545.879 4.62187 546.389 4.62187Z" fill="#D4C17F"/>
<path d="M546.333 33.5377C547.071 33.5377 547.667 32.9418 547.667 32.2045V31.9738C547.667 31.6232 547.689 31.2792 547.733 30.9406C547.829 30.2099 547.315 29.5406 546.587 29.4446C545.835 29.3487 545.187 29.8632 545.089 30.5926C545.031 31.0432 545 31.5085 545 31.974V32.2046C545 32.9418 545.596 33.5377 546.333 33.5377Z" fill="#D4C17F"/>
<path d="M539.667 33.8671C540.404 33.8671 541 33.2698 541 32.5338V31.1792C541 30.4432 540.404 29.8459 539.667 29.8459C538.929 29.8459 538.333 30.4432 538.333 31.1792V32.5338C538.333 33.2698 538.929 33.8671 539.667 33.8671Z" fill="#D4C17F"/>
<path d="M547.323 12.7778C546.893 13.0137 546.473 13.2684 546.069 13.5392C545.457 13.9486 545.292 14.7778 545.701 15.3898C545.959 15.7739 546.381 15.9804 546.811 15.9804C547.067 15.9804 547.324 15.9084 547.551 15.7551C547.893 15.5271 548.247 15.3125 548.609 15.1125C549.253 14.7578 549.489 13.9457 549.135 13.3018C548.779 12.6565 547.969 12.4245 547.323 12.7778Z" fill="#D4C17F"/>
<path d="M528.411 12.6419C528.663 13.0445 529.096 13.2659 529.54 13.2659C529.783 13.2659 530.028 13.2006 530.247 13.0619C530.871 12.6698 531.06 11.8472 530.668 11.2245C530.416 10.8231 530.155 10.4312 529.88 10.0472C529.452 9.44859 528.622 9.30859 528.02 9.73921C527.42 10.1686 527.283 11.0006 527.711 11.5992C527.955 11.9392 528.188 12.2872 528.411 12.6419Z" fill="#D4C17F"/>
<path d="M552.788 2.82187C552.843 2.82187 552.9 2.8178 552.956 2.81124C553.368 2.75921 553.785 2.71921 554.207 2.68984C554.943 2.64046 555.497 2.00578 555.449 1.27125C555.401 0.536559 554.756 -0.0193774 554.031 0.0298413C553.556 0.0604662 553.087 0.107185 552.623 0.165779C551.892 0.25781 551.373 0.924371 551.467 1.65515C551.551 2.32843 552.125 2.82187 552.788 2.82187Z" fill="#D4C17F"/>
<path d="M547.844 24.7218C547.344 25.2618 547.375 26.1059 547.913 26.6059C548.172 26.8445 548.496 26.9618 548.821 26.9618C549.18 26.9618 549.536 26.8192 549.8 26.5351C550.077 26.2365 550.383 25.9537 550.708 25.6951C551.285 25.2365 551.381 24.3978 550.923 23.8218C550.465 23.2459 549.625 23.1471 549.049 23.6071C548.619 23.9484 548.213 24.3245 547.844 24.7218Z" fill="#D4C17F"/>
<path d="M535.752 13.0619C535.972 13.2005 536.217 13.2659 536.46 13.2659C536.904 13.2659 537.337 13.0445 537.589 12.6419C537.812 12.2872 538.045 11.9392 538.289 11.5992C538.717 11.0006 538.58 10.1686 537.98 9.73921C537.379 9.30859 536.548 9.44859 536.12 10.0472C535.845 10.4312 535.583 10.8231 535.332 11.2245C534.94 11.8472 535.129 12.6698 535.752 13.0619Z" fill="#D4C17F"/>
<path d="M546.333 39.9738C547.071 39.9738 547.667 39.3765 547.667 38.6405V37.9738C547.667 37.2379 547.071 36.6406 546.333 36.6406C545.596 36.6406 545 37.2379 545 37.9738V38.6405C545 39.3765 545.596 39.9738 546.333 39.9738Z" fill="#D4C17F"/>
<path d="M539.639 27.091C539.7 27.1004 539.76 27.1043 539.82 27.1043C540.476 27.1043 541.049 26.619 541.141 25.9496C541.196 25.539 541.269 25.1337 541.36 24.7337C541.524 24.0151 541.073 23.3017 540.355 23.139C539.636 22.9764 538.921 23.4257 538.759 24.1443C538.652 24.6203 538.564 25.1029 538.497 25.591C538.399 26.3204 538.911 26.9924 539.639 27.091Z" fill="#D4C17F"/>
<path d="M530.561 17.1792C530.695 17.5739 530.815 17.9725 530.925 18.3778C531.087 18.971 531.625 19.3618 532.211 19.3618C532.327 19.3618 532.444 19.3459 532.561 19.3139C532.727 19.2698 532.871 19.1898 533 19.0953C533.129 19.1899 533.273 19.2699 533.439 19.3139C533.556 19.3459 533.673 19.3618 533.789 19.3618C534.374 19.3618 534.913 18.9712 535.074 18.3778C535.185 17.9725 535.304 17.5737 535.439 17.1792C535.677 16.4818 535.303 15.7245 534.606 15.4871C533.966 15.2686 533.292 15.5818 533 16.1739C532.708 15.5818 532.033 15.2686 531.393 15.4871C530.696 15.7245 530.323 16.4818 530.561 17.1792Z" fill="#D4C17F"/>
<path d="M540.785 8.20842C541.096 8.20842 541.408 8.10045 541.66 7.8817C541.976 7.60701 542.3 7.34029 542.631 7.08576C543.215 6.63639 543.323 5.80045 542.875 5.21639C542.425 4.63233 541.588 4.5217 541.005 4.97233C540.631 5.26029 540.265 5.55904 539.911 5.86967C539.355 6.35232 539.296 7.19498 539.78 7.75107C540.043 8.05388 540.413 8.20842 540.785 8.20842Z" fill="#D4C17F"/>
<path d="M541.821 17.5418C541.528 17.9312 541.251 18.3339 540.991 18.7471C540.597 19.3698 540.785 20.1939 541.408 20.5871C541.629 20.7245 541.873 20.7912 542.117 20.7912C542.56 20.7912 542.993 20.5712 543.247 20.1685C543.468 19.8179 543.703 19.4765 543.952 19.1471C544.395 18.5592 544.277 17.7231 543.689 17.2792C543.1 16.8351 542.264 16.9565 541.821 17.5418Z" fill="#D4C17F"/>
<path d="M554.303 10.6939C553.809 10.7312 553.324 10.7898 552.845 10.8686C552.119 10.9886 551.627 11.6753 551.747 12.4018C551.853 13.0551 552.417 13.5178 553.06 13.5178C553.132 13.5178 553.204 13.5125 553.277 13.5004C553.684 13.4337 554.093 13.3845 554.508 13.3525C555.243 13.2951 555.792 12.6539 555.735 11.9192C555.677 11.1858 555.052 10.6312 554.303 10.6939Z" fill="#D4C17F"/>
<path d="M559.236 2.92047C559.651 2.98719 560.064 3.06578 560.472 3.15516C560.569 3.17656 560.664 3.18578 560.759 3.18578C561.372 3.18578 561.923 2.76172 562.06 2.13906C562.217 1.41906 561.763 0.708441 561.043 0.551098C560.584 0.449848 560.123 0.36313 559.655 0.288442C558.928 0.168442 558.245 0.668441 558.129 1.39516C558.013 2.12188 558.508 2.80578 559.236 2.92047Z" fill="#D4C17F"/>
<path d="M561.517 11.6525C561.057 11.4884 560.589 11.3419 560.116 11.2165C559.408 11.0325 558.676 11.4525 558.485 12.1645C558.297 12.8765 558.721 13.6058 559.433 13.7951C559.835 13.9004 560.229 14.0231 560.616 14.1631C560.765 14.2164 560.916 14.2417 561.066 14.2417C561.613 14.2417 562.126 13.9017 562.321 13.3576C562.571 12.6645 562.209 11.9004 561.517 11.6525Z" fill="#D4C17F"/>
<path d="M555.124 21.3204C554.388 21.3578 553.821 21.9831 553.859 22.7178C553.895 23.4537 554.472 24.0137 555.256 23.9831C555.665 23.9631 556.088 23.9751 556.493 24.0164C556.54 24.0217 556.587 24.0231 556.632 24.0231C557.308 24.0231 557.885 23.5125 557.957 22.8271C558.032 22.0939 557.499 21.4392 556.767 21.3631C556.227 21.3084 555.668 21.2912 555.124 21.3204Z" fill="#D4C17F"/>
<path d="M570.681 8.87247C570.944 9.16044 571.305 9.30716 571.667 9.30716C571.988 9.30716 572.309 9.19247 572.565 8.95919C573.109 8.46326 573.148 7.61919 572.652 7.07513C572.492 6.90045 572.329 6.72841 572.165 6.56045C571.648 6.03373 570.805 6.02717 570.28 6.5417C569.752 7.05638 569.745 7.90029 570.258 8.42701C570.403 8.57247 570.544 8.72185 570.681 8.87247Z" fill="#D4C17F"/>
<path d="M550.333 50.6404H534.333C533.596 50.6404 533 51.2377 533 51.9736C533 52.7096 533.596 53.3069 534.333 53.3069H550.333C554.072 53.3069 557 50.379 557 46.6402V43.9735C557 43.2376 556.404 42.6402 555.667 42.6402H510.333C509.596 42.6402 509 43.2376 509 43.9735V46.6402C509 50.3788 511.928 53.3069 515.667 53.3069H527.667V59.9736C527.667 60.7096 528.263 61.3069 529 61.3069C529.737 61.3069 530.333 60.7096 530.333 59.9736V51.9736C530.333 51.2377 529.737 50.6404 529 50.6404H515.667C513.423 50.6404 511.667 48.883 511.667 46.6404V45.3071H554.333V46.6404C554.333 48.883 552.577 50.6404 550.333 50.6404Z" fill="#D4C17F"/>
<path d="M563.647 31.4018C563.66 31.5898 563.667 31.7818 563.667 31.9738C563.667 32.7098 564.263 33.3071 565 33.3071C565.737 33.3071 566.333 32.7098 566.333 31.9738C566.333 31.7179 566.324 31.4645 566.305 31.2124C566.253 30.4792 565.629 29.9245 564.881 29.9765C564.147 30.0298 563.595 30.6671 563.647 31.4018Z" fill="#D4C17F"/>
<path d="M560.831 24.0831C560.344 24.6364 560.397 25.4778 560.949 25.9657C561.259 26.2378 561.548 26.5351 561.809 26.8498C562.075 27.1671 562.453 27.3298 562.836 27.3298C563.136 27.3298 563.439 27.2285 563.688 27.0218C564.253 26.5498 564.331 25.7098 563.859 25.1432C563.511 24.7245 563.124 24.3273 562.712 23.9645C562.161 23.4792 561.319 23.5298 560.831 24.0831Z" fill="#D4C17F"/>
<path d="M534.333 30.5657C534.333 29.8298 533.737 29.2324 533 29.2324C532.263 29.2324 531.667 29.8298 531.667 30.5657V32.0484C531.667 32.7843 532.263 33.3817 533 33.3817C533.737 33.3817 534.333 32.7843 534.333 32.0484V30.5657Z" fill="#D4C17F"/>
<path d="M533 36.6404C532.263 36.6404 531.667 37.2377 531.667 37.9737V38.6404C531.667 39.3763 532.263 39.9737 533 39.9737C533.737 39.9737 534.333 39.3763 534.333 38.6404V37.9737C534.333 37.2377 533.737 36.6404 533 36.6404Z" fill="#D4C17F"/>
<path d="M538.333 38.6404C538.333 39.3763 538.929 39.9737 539.667 39.9737C540.404 39.9737 541 39.3763 541 38.6404V37.9737C541 37.2377 540.404 36.6404 539.667 36.6404C538.929 36.6404 538.333 37.2377 538.333 37.9737V38.6404Z" fill="#D4C17F"/>
<path d="M534.333 23.9739C534.333 23.7632 534.336 23.5553 534.343 23.3459C534.359 22.7765 534.011 22.2873 533.512 22.0832C533.461 22.0606 533.404 22.0606 533.351 22.0446C533.251 22.0179 533.156 21.9779 533.048 21.9753C533.035 21.9739 533.023 21.9739 533.008 21.9739C533.005 21.9739 533.003 21.9753 533 21.9753C532.997 21.9753 532.995 21.9739 532.992 21.9739C532.977 21.9739 532.965 21.9739 532.952 21.9753C532.844 21.9779 532.748 22.0179 532.649 22.0446C532.596 22.0606 532.537 22.0606 532.488 22.0832C531.989 22.2873 531.641 22.7765 531.657 23.3459C531.664 23.5553 531.667 23.7632 531.667 23.9739V24.6406C531.667 25.3765 532.263 25.9739 533 25.9739C533.737 25.9739 534.333 25.3765 534.333 24.6406V23.9739Z" fill="#D4C17F"/>
<path d="M525 38.6404C525 39.3763 525.596 39.9737 526.333 39.9737C527.071 39.9737 527.667 39.3763 527.667 38.6404V37.9737C527.667 37.2377 527.071 36.6404 526.333 36.6404C525.596 36.6404 525 37.2377 525 37.9737V38.6404Z" fill="#D4C17F"/>
<path d="M526.333 33.8671C527.071 33.8671 527.667 33.2698 527.667 32.5338V31.1792C527.667 30.4432 527.071 29.8459 526.333 29.8459C525.596 29.8459 525 30.4432 525 31.1792V32.5338C525 33.2698 525.596 33.8671 526.333 33.8671Z" fill="#D4C17F"/>
<path d="M521 38.6404V37.9737C521 37.2377 520.404 36.6404 519.667 36.6404C518.929 36.6404 518.334 37.2377 518.334 37.9737V38.6404C518.334 39.3763 518.929 39.9737 519.667 39.9737C520.404 39.9737 521 39.3765 521 38.6404Z" fill="#D4C17F"/>
<path d="M502.312 27.0218C502.561 27.2285 502.863 27.3298 503.164 27.3298C503.547 27.3298 503.925 27.1671 504.191 26.8498C504.452 26.5351 504.741 26.2378 505.051 25.9657C505.603 25.4778 505.656 24.6364 505.169 24.0831C504.684 23.5298 503.841 23.4764 503.288 23.9643C502.876 24.327 502.489 24.7243 502.14 25.1431C501.669 25.7098 501.747 26.5498 502.312 27.0218Z" fill="#D4C17F"/>
<path d="M566.333 63.9738H538.333V57.3071C538.333 56.5711 537.737 55.9738 537 55.9738C536.263 55.9738 535.667 56.5711 535.667 57.3071V65.3071C535.667 66.043 536.263 66.6403 537 66.6403H565V73.307C565 75.5124 563.205 77.307 561 77.307H505C502.795 77.307 501 75.5124 501 73.307V66.6403H531.777C532.515 66.6403 533.111 66.043 533.111 65.3071C533.111 64.5711 532.515 63.9738 531.777 63.9738H499.667C498.929 63.9738 498.333 64.5711 498.333 65.3071V73.307C498.333 76.983 501.324 79.9738 505 79.9738H561C564.676 79.9738 567.667 76.9831 567.667 73.307V65.3071C567.667 64.5711 567.071 63.9738 566.333 63.9738Z" fill="#D4C17F"/>
<path d="M525 70.6403V73.307C525 74.043 525.596 74.6403 526.333 74.6403C527.071 74.6403 527.667 74.043 527.667 73.307V70.6403C527.667 69.9044 527.071 69.3071 526.333 69.3071C525.596 69.3071 525 69.9044 525 70.6403Z" fill="#D4C17F"/>
<path d="M494.393 25.9751C494.378 25.9737 494.361 25.9737 494.345 25.9737C493.632 25.9737 493.039 26.5404 493.015 27.2604C493.005 27.4978 493 27.7351 493 27.9737C493 28.7096 493.596 29.307 494.333 29.307C495.071 29.307 495.667 28.7096 495.667 27.9737C495.667 27.7657 495.672 27.5604 495.679 27.3537C495.704 26.6178 495.129 26.0004 494.393 25.9751Z" fill="#D4C17F"/>
<path d="M500.153 17.4139C500.452 17.1259 500.763 16.8512 501.083 16.5898C501.653 16.1231 501.739 15.2831 501.272 14.7139C500.807 14.1445 499.967 14.0565 499.396 14.5245C499.019 14.8339 498.652 15.1578 498.303 15.4965C497.772 16.0072 497.758 16.8512 498.268 17.3818C498.53 17.6525 498.879 17.7886 499.228 17.7886C499.561 17.7884 499.896 17.6645 500.153 17.4139Z" fill="#D4C17F"/>
<path d="M496.628 19.6031C495.971 19.2751 495.167 19.539 494.839 20.1978C494.62 20.6325 494.417 21.0792 494.236 21.5337C493.963 22.219 494.296 22.9937 494.979 23.267C495.141 23.3323 495.308 23.3629 495.473 23.3629C496.003 23.3629 496.504 23.0456 496.712 22.5243C496.865 22.139 497.036 21.7617 497.221 21.3923C497.552 20.7339 497.287 19.9339 496.628 19.6031Z" fill="#D4C17F"/>
<path d="M499.029 5.56311C499.255 5.56311 499.484 5.50576 499.693 5.38576C500.055 5.17779 500.421 4.9817 500.796 4.79904C501.456 4.47373 501.728 3.67373 501.404 3.01374C501.079 2.35233 500.277 2.08171 499.619 2.40577C499.192 2.61514 498.773 2.8378 498.363 3.07374C497.725 3.4417 497.505 4.25639 497.873 4.89514C498.12 5.32311 498.569 5.56311 499.029 5.56311Z" fill="#D4C17F"/>
<path d="M511.667 70.6403V73.307C511.667 74.043 512.263 74.6403 513 74.6403C513.737 74.6403 514.333 74.043 514.333 73.307V70.6403C514.333 69.9044 513.737 69.3071 513 69.3071C512.263 69.3071 511.667 69.9044 511.667 70.6403Z" fill="#D4C17F"/>
<path d="M571.021 23.2671C571.704 22.9938 572.037 22.2192 571.764 21.5339C571.582 21.0792 571.38 20.6325 571.161 20.1979C570.832 19.5393 570.031 19.2765 569.372 19.6032C568.713 19.9339 568.448 20.7339 568.779 21.3926C568.964 21.762 569.135 22.1393 569.288 22.5246C569.496 23.046 569.997 23.3632 570.525 23.3632C570.692 23.3631 570.859 23.3324 571.021 23.2671Z" fill="#D4C17F"/>
<path d="M572.985 27.2604C572.961 26.5231 572.308 25.9324 571.607 25.9751C570.871 26.0004 570.296 26.6178 570.321 27.3537C570.328 27.5604 570.333 27.7657 570.333 27.9737C570.333 28.7096 570.929 29.307 571.667 29.307C572.404 29.307 573 28.7096 573 27.9737C573 27.7351 572.995 27.4978 572.985 27.2604Z" fill="#D4C17F"/>
<path d="M567.636 3.0739C567.227 2.83797 566.808 2.61531 566.381 2.40594C565.725 2.08328 564.921 2.3539 564.596 3.0139C564.272 3.6739 564.544 4.4739 565.204 4.79921C565.579 4.98187 565.945 5.17796 566.305 5.38593C566.516 5.50593 566.745 5.56327 566.969 5.56327C567.431 5.56327 567.88 5.32327 568.127 4.89531C568.495 4.25656 568.275 3.44187 567.636 3.0739Z" fill="#D4C17F"/>
<path d="M554.333 73.307V70.6403C554.333 69.9044 553.737 69.3071 553 69.3071C552.263 69.3071 551.667 69.9044 551.667 70.6403V73.307C551.667 74.043 552.263 74.6403 553 74.6403C553.737 74.6403 554.333 74.043 554.333 73.307Z" fill="#D4C17F"/>
<path d="M541 73.307V70.6403C541 69.9044 540.404 69.3071 539.667 69.3071C538.929 69.3071 538.334 69.9044 538.334 70.6403V73.307C538.334 74.043 538.929 74.6403 539.667 74.6403C540.404 74.6403 541 74.043 541 73.307Z" fill="#D4C17F"/>
<path d="M566.604 14.5245C566.032 14.0565 565.192 14.1445 564.728 14.7139C564.261 15.2833 564.347 16.1233 564.916 16.5898C565.237 16.8512 565.548 17.1258 565.847 17.4139C566.104 17.6645 566.439 17.7886 566.772 17.7886C567.121 17.7886 567.469 17.6526 567.732 17.3818C568.243 16.8512 568.228 16.0072 567.697 15.4965C567.348 15.1578 566.981 14.8339 566.604 14.5245Z" fill="#D4C17F"/>
<path d="M501.119 29.9765C500.357 29.9259 499.747 30.4792 499.693 31.2124C499.676 31.4645 499.667 31.7177 499.667 31.9738C499.667 32.7098 500.263 33.3071 501 33.3071C501.737 33.3071 502.333 32.7098 502.333 31.9738C502.333 31.7818 502.34 31.5898 502.353 31.4018C502.405 30.6671 501.853 30.0298 501.119 29.9765Z" fill="#D4C17F"/>
<path d="M519.413 29.4445C518.685 29.5404 518.171 30.2098 518.267 30.9404C518.311 31.279 518.333 31.6231 518.333 31.9737V32.2043C518.333 32.9416 518.929 33.5376 519.667 33.5376C520.404 33.5376 521 32.9416 521 32.2043V31.9737C521 31.5084 520.971 31.0431 520.911 30.5923C520.813 29.8631 520.157 29.3471 519.413 29.4445Z" fill="#D4C17F"/>
<path d="M517.907 4.02453C518.299 4.1725 518.685 4.33391 519.067 4.50453C519.244 4.58453 519.428 4.62187 519.611 4.62187C520.12 4.62187 520.607 4.32859 520.828 3.83391C521.131 3.16188 520.829 2.3725 520.157 2.07125C519.729 1.87922 519.293 1.69797 518.852 1.52985C518.168 1.27391 517.395 1.61516 517.134 2.30453C516.871 2.9925 517.217 3.76188 517.907 4.02453Z" fill="#D4C17F"/>
<path d="M517.391 15.1125C517.752 15.3125 518.107 15.5271 518.449 15.7551C518.677 15.9084 518.933 15.9804 519.189 15.9804C519.619 15.9804 520.041 15.7737 520.299 15.3898C520.708 14.7778 520.543 13.9486 519.931 13.5392C519.525 13.2686 519.107 13.0139 518.677 12.7778C518.031 12.4245 517.222 12.6565 516.865 13.3018C516.511 13.9457 516.747 14.7578 517.391 15.1125Z" fill="#D4C17F"/>
<path d="M494.333 9.30717C494.695 9.30717 495.056 9.16045 495.319 8.87248C495.456 8.72186 495.597 8.57248 495.741 8.42717C496.255 7.90046 496.247 7.05655 495.72 6.54187C495.196 6.02718 494.353 6.03655 493.835 6.56062C493.671 6.72858 493.508 6.90061 493.348 7.0753C492.852 7.61936 492.891 8.46327 493.435 8.95936C493.691 9.19248 494.012 9.30717 494.333 9.30717Z" fill="#D4C17F"/>
<path d="M515.292 25.6951C515.617 25.9537 515.923 26.2365 516.2 26.5351C516.464 26.8192 516.82 26.9618 517.179 26.9618C517.503 26.9618 517.828 26.8445 518.087 26.6059C518.625 26.1059 518.656 25.2618 518.156 24.7218C517.787 24.3245 517.381 23.9485 516.951 23.6071C516.371 23.1485 515.533 23.2457 515.077 23.8218C514.619 24.3978 514.715 25.2365 515.292 25.6951Z" fill="#D4C17F"/>
<path d="M522.753 20.1684C523.007 20.5711 523.44 20.7911 523.883 20.7911C524.127 20.7911 524.371 20.7243 524.592 20.587C525.215 20.1937 525.403 19.3696 525.009 18.747C524.748 18.3337 524.471 17.9311 524.179 17.5417C523.735 16.9564 522.9 16.835 522.311 17.279C521.723 17.7231 521.606 18.559 522.048 19.147C522.297 19.4765 522.532 19.8178 522.753 20.1684Z" fill="#D4C17F"/>
<path d="M523.369 7.08576C523.7 7.34045 524.024 7.60717 524.34 7.8817C524.592 8.1017 524.904 8.20842 525.215 8.20842C525.587 8.20842 525.957 8.05373 526.22 7.75107C526.704 7.19513 526.645 6.35248 526.089 5.86967C525.735 5.55904 525.369 5.26029 524.995 4.97233C524.412 4.5217 523.576 4.63233 523.125 5.21639C522.677 5.80045 522.785 6.63654 523.369 7.08576Z" fill="#D4C17F"/>
<path d="M505.241 3.18578C505.336 3.18578 505.431 3.17641 505.527 3.15516C505.936 3.06578 506.349 2.98719 506.764 2.92047C507.492 2.80579 507.987 2.12188 507.871 1.39516C507.756 0.668445 507.075 0.167196 506.345 0.288446C505.877 0.363134 505.415 0.449852 504.957 0.551102C504.237 0.708445 503.783 1.41907 503.94 2.13907C504.077 2.76188 504.628 3.18578 505.241 3.18578Z" fill="#D4C17F"/>
<path d="M511.793 2.68984C512.215 2.71921 512.632 2.75921 513.044 2.81124C513.1 2.81796 513.157 2.82187 513.212 2.82187C513.875 2.82187 514.449 2.32859 514.533 1.65515C514.627 0.924526 514.108 0.257809 513.377 0.165778C512.913 0.107184 512.444 0.0604654 511.971 0.0298405C511.252 -0.0234407 510.599 0.536558 510.551 1.27124C510.503 2.00577 511.057 2.64046 511.793 2.68984Z" fill="#D4C17F"/>
<path d="M525.645 23.1392C524.927 23.3018 524.476 24.0151 524.639 24.7339C524.731 25.1338 524.803 25.5392 524.859 25.9498C524.951 26.6192 525.523 27.1045 526.18 27.1045C526.24 27.1045 526.3 27.1004 526.36 27.0912C527.089 26.9926 527.601 26.3206 527.503 25.5912C527.436 25.1032 527.348 24.6206 527.241 24.1445C527.079 23.4271 526.36 22.9778 525.645 23.1392Z" fill="#D4C17F"/>
<path d="M504.933 14.2418C505.083 14.2418 505.235 14.2165 505.384 14.1632C505.771 14.0232 506.165 13.9006 506.567 13.7953C507.279 13.6059 507.703 12.8767 507.515 12.1647C507.325 11.4526 506.595 11.0326 505.884 11.2167C505.411 11.342 504.943 11.4887 504.483 11.6526C503.791 11.9006 503.429 12.6647 503.679 13.3579C503.873 13.9018 504.387 14.2418 504.933 14.2418Z" fill="#D4C17F"/>
<path d="M511.492 13.3525C511.907 13.3845 512.316 13.4339 512.723 13.5004C512.796 13.5125 512.868 13.5178 512.94 13.5178C513.581 13.5178 514.147 13.0551 514.253 12.4019C514.373 11.6751 513.881 10.9886 513.155 10.8686C512.676 10.79 512.191 10.7312 511.697 10.6939C510.972 10.6298 510.323 11.1845 510.265 11.9192C510.208 12.6539 510.757 13.2951 511.492 13.3525Z" fill="#D4C17F"/>
<path d="M509.368 24.0231C509.413 24.0231 509.46 24.0217 509.507 24.0164C509.912 23.975 510.335 23.9631 510.744 23.9831C511.511 24.0178 512.105 23.4537 512.141 22.7178C512.179 21.9831 511.612 21.3578 510.876 21.3204C510.331 21.291 509.772 21.3084 509.233 21.3631C508.501 21.439 507.968 22.0937 508.043 22.8271C508.115 23.5125 508.692 24.0231 509.368 24.0231Z" fill="#D4C17F"/>
</g>
<path d="M712 74.0011H693.333C692.596 74.0011 692 74.5984 692 75.3344C692 76.0703 692.596 76.6676 693.333 76.6676H712C712.737 76.6676 713.333 76.0703 713.333 75.3344C713.333 74.5984 712.737 74.0011 712 74.0011Z" fill="#D4C17F"/>
<path d="M708 71.3317C716.823 71.3317 724 64.153 724 55.3317C724 50.9144 722.239 46.8011 719.04 43.7491C718.509 43.2423 717.663 43.2623 717.155 43.7931C716.647 44.3264 716.667 45.1705 717.199 45.6784C719.864 48.2225 721.333 51.6491 721.333 55.3317C721.333 62.6837 715.352 68.665 708 68.665C700.648 68.665 694.667 62.6836 694.667 55.3317C694.667 47.9784 700.648 41.9984 708 41.9984C708.737 41.9984 709.333 41.4011 709.333 40.6651C709.333 39.9278 708.737 39.3319 708 39.3319C699.177 39.3319 692 46.5092 692 55.3319C692 64.153 699.177 71.3317 708 71.3317Z" fill="#D4C17F"/>
<path d="M714.667 33.9983H715.343L707.64 52.7009C706.341 52.8783 705.333 53.9836 705.333 55.3316C705.333 56.8022 706.529 57.9983 708 57.9983C709.471 57.9983 710.667 56.8023 710.667 55.3316C710.667 54.7209 710.453 54.1663 710.107 53.7156L717.631 35.4462L726.07 47.6983C726.485 48.305 727.314 48.4595 727.923 48.0409C728.531 47.6223 728.683 46.793 728.264 46.1862L719.87 33.9983H722.667C724.872 33.9983 726.667 32.2036 726.667 29.9983C726.667 27.7916 724.872 25.9983 722.667 25.9983H714.667C713.93 25.9983 713.334 26.5942 713.334 27.3316V32.6648C713.333 33.4011 713.929 33.9983 714.667 33.9983ZM716 28.665H722.667C723.403 28.665 724 29.2623 724 29.9983C724 30.733 723.403 31.3316 722.667 31.3316H716V28.665Z" fill="#D4C17F"/>
<path d="M754.667 40.665C754.667 41.4009 755.263 41.9983 756 41.9983C763.352 41.9983 769.333 47.9783 769.333 55.3316C769.333 62.6836 763.352 68.6648 756 68.6648C748.648 68.6648 742.667 62.6834 742.667 55.3316C742.667 51.3356 744.436 47.5848 747.524 45.0383C748.091 44.5703 748.172 43.7303 747.703 43.1623C747.235 42.5956 746.396 42.5117 745.825 42.9811C742.124 46.0358 740 50.5358 740 55.3317C740 64.153 747.177 71.3317 756 71.3317C764.823 71.3317 772 64.153 772 55.3317C772 46.5091 764.823 39.3317 756 39.3317C755.263 39.3317 754.667 39.9276 754.667 40.665Z" fill="#D4C17F"/>
<path d="M733.333 74.0011H720C719.263 74.0011 718.667 74.5984 718.667 75.3344C718.667 76.0703 719.263 76.6676 720 76.6676H733.333C734.071 76.6676 734.667 76.0703 734.667 75.3344C734.667 74.5984 734.071 74.0011 733.333 74.0011Z" fill="#D4C17F"/>
<path d="M733.333 48.8544V44.665C734.071 44.665 734.667 44.0677 734.667 43.3317C734.667 42.5944 734.071 41.9984 733.333 41.9984H730.667C729.929 41.9984 729.333 42.5944 729.333 43.3317C729.333 44.0677 729.929 44.665 730.667 44.665V48.8544C728.372 49.4503 726.667 51.5197 726.667 53.9984C726.667 56.4758 728.372 58.5452 730.667 59.1425V63.3319C729.929 63.3319 729.333 63.9278 729.333 64.6652C729.333 65.4011 729.929 65.9984 730.667 65.9984H733.333C734.071 65.9984 734.667 65.4011 734.667 64.6652C734.667 63.9278 734.071 63.3319 733.333 63.3319V59.1425C735.628 58.5452 737.333 56.4758 737.333 53.9984C737.333 51.5197 735.628 49.4503 733.333 48.8544ZM732 56.665C730.531 56.665 729.333 55.4691 729.333 53.9983C729.333 52.5277 730.531 51.3316 732 51.3316C733.471 51.3316 734.667 52.5275 734.667 53.9983C734.667 55.4691 733.471 56.665 732 56.665Z" fill="#D4C17F"/>
<path d="M753.945 53.6517C753.569 54.1117 753.333 54.6917 753.333 55.3317C753.333 56.8023 754.531 57.9984 756 57.9984C757.469 57.9984 758.667 56.8025 758.667 55.3317C758.667 54.0117 757.7 52.9211 756.441 52.7091L750.424 36.665H759.943C761.539 36.665 762.467 35.3891 762.641 34.2597L763.973 27.593C764.052 27.2009 763.951 26.7944 763.697 26.4862C763.444 26.1769 763.067 25.9983 762.667 25.9983H750.667C749.929 25.9983 749.333 26.5942 749.333 27.3316C749.333 28.0675 749.929 28.6648 750.667 28.6648H761.04L760.021 33.7662C760.001 33.8583 759.944 33.9876 759.943 33.9983H749.424L745.25 22.8636C745.247 22.8583 745.243 22.8556 745.242 22.8503C745.239 22.845 745.24 22.8397 745.239 22.8356L742.572 16.1689C742.299 15.4848 741.516 15.1569 740.839 15.4262C740.155 15.6995 739.822 16.4756 740.095 17.1595L742.524 23.2275L737.51 32.0034C737.143 32.6422 737.365 33.4567 738.005 33.8222C738.213 33.9408 738.441 33.9981 738.665 33.9981C739.13 33.9981 739.579 33.7569 739.824 33.3261L743.749 26.4581L746.957 35.0141L736.796 46.4447C736.305 46.9953 736.356 47.838 736.907 48.3273C737.16 48.5541 737.476 48.6647 737.792 48.6647C738.159 48.6647 738.525 48.5127 738.788 48.2167L748.016 37.8367L753.945 53.6517Z" fill="#D4C17F"/>
<path d="M770.667 74.0011H749.333C748.596 74.0011 748 74.5984 748 75.3344C748 76.0703 748.596 76.6676 749.333 76.6676H770.667C771.404 76.6676 772 76.0703 772 75.3344C772 74.5984 771.404 74.0011 770.667 74.0011Z" fill="#D4C17F"/>
<path d="M744 74.0011H741.333C740.596 74.0011 740 74.5984 740 75.3344C740 76.0703 740.596 76.6676 741.333 76.6676H744C744.737 76.6676 745.333 76.0703 745.333 75.3344C745.333 74.5984 744.737 74.0011 744 74.0011Z" fill="#D4C17F"/>
<defs>
<clipPath id="clip0_3_87">
<rect width="80" height="80" fill="white" transform="translate(493)"/>
</clipPath>
</defs>
</svg>
